<svg xmlns="http://www.w3.org/2000/svg" xmlns:xlink="http://www.w3.org/1999/xlink" width="1200" zoomAndPan="magnify" viewBox="0 0 900 112.499997" height="150" preserveAspectRatio="xMidYMid meet" version="1.2"><defs><clipPath id="516cd66f98"><path d="M 1.992188 0 L 898.007812 0 L 898.007812 112.003906 L 1.992188 112.003906 Z M 1.992188 0 "/></clipPath></defs><g id="e29b3f5396"><g clip-rule="nonzero" clip-path="url(#516cd66f98)"><path style=" stroke:none;fill-rule:nonzero;fill:#ffffff;fill-opacity:1;" d="M 1.992188 0 L 898.007812 0 L 898.007812 112.003906 L 1.992188 112.003906 Z M 1.992188 0 "/><path style=" stroke:none;fill-rule:nonzero;fill:#000000;fill-opacity:1;" d="M 1.992188 0 L 898.007812 0 L 898.007812 112.003906 L 1.992188 112.003906 Z M 1.992188 0 "/></g><g style="fill:#ffffff;fill-opacity:1;"><g transform="translate(271.928144, 42.125495)"><path style="stroke:none" d="M 6.421875 -9.796875 C 6.078125 -9.503906 5.828125 -9.164062 5.671875 -8.78125 C 5.515625 -8.394531 5.4375 -7.910156 5.4375 -7.328125 L 5.4375 -6.90625 L 4.109375 -6.90625 C 4.117188 -7.695312 4.265625 -8.363281 4.546875 -8.90625 C 4.828125 -9.445312 5.273438 -9.925781 5.890625 -10.34375 Z M 3.734375 -9.796875 C 3.390625 -9.503906 3.140625 -9.164062 2.984375 -8.78125 C 2.828125 -8.394531 2.75 -7.910156 2.75 -7.328125 L 2.75 -6.90625 L 1.421875 -6.90625 C 1.421875 -7.6875 1.5625 -8.347656 1.84375 -8.890625 C 2.132812 -9.441406 2.585938 -9.925781 3.203125 -10.34375 Z M 3.734375 -9.796875 "/></g></g><g style="fill:#ffffff;fill-opacity:1;"><g transform="translate(279.049725, 42.125495)"><path style="stroke:none" d="M 9.828125 -2.6875 C 9.523438 -1.738281 9.019531 -1.019531 8.3125 -0.53125 C 7.613281 -0.0390625 6.722656 0.203125 5.640625 0.203125 C 4.972656 0.203125 4.359375 0.0859375 3.796875 -0.140625 C 3.234375 -0.367188 2.726562 -0.703125 2.28125 -1.140625 C 1.78125 -1.648438 1.40625 -2.226562 1.15625 -2.875 C 0.90625 -3.519531 0.78125 -4.25 0.78125 -5.0625 C 0.78125 -6.644531 1.234375 -7.921875 2.140625 -8.890625 C 3.054688 -9.859375 4.257812 -10.34375 5.75 -10.34375 C 6.3125 -10.34375 6.90625 -10.269531 7.53125 -10.125 C 8.15625 -9.976562 8.828125 -9.757812 9.546875 -9.46875 L 9.546875 -7.125 L 8.78125 -7.125 C 8.613281 -7.976562 8.273438 -8.601562 7.765625 -9 C 7.265625 -9.40625 6.554688 -9.609375 5.640625 -9.609375 C 4.554688 -9.609375 3.734375 -9.222656 3.171875 -8.453125 C 2.617188 -7.691406 2.34375 -6.5625 2.34375 -5.0625 C 2.34375 -3.582031 2.617188 -2.457031 3.171875 -1.6875 C 3.734375 -0.914062 4.554688 -0.53125 5.640625 -0.53125 C 6.398438 -0.53125 7.023438 -0.707031 7.515625 -1.0625 C 8.003906 -1.425781 8.359375 -1.96875 8.578125 -2.6875 Z M 9.828125 -2.6875 "/></g></g><g style="fill:#ffffff;fill-opacity:1;"><g transform="translate(289.708289, 42.125495)"><path style="stroke:none" d="M 4.1875 -0.46875 C 4.863281 -0.46875 5.375 -0.734375 5.71875 -1.265625 C 6.0625 -1.796875 6.234375 -2.582031 6.234375 -3.625 C 6.234375 -4.65625 6.0625 -5.429688 5.71875 -5.953125 C 5.375 -6.484375 4.863281 -6.75 4.1875 -6.75 C 3.519531 -6.75 3.015625 -6.484375 2.671875 -5.953125 C 2.328125 -5.429688 2.15625 -4.65625 2.15625 -3.625 C 2.15625 -2.582031 2.328125 -1.796875 2.671875 -1.265625 C 3.015625 -0.734375 3.519531 -0.46875 4.1875 -0.46875 Z M 4.1875 0.203125 C 3.132812 0.203125 2.285156 -0.144531 1.640625 -0.84375 C 1.003906 -1.539062 0.6875 -2.46875 0.6875 -3.625 C 0.6875 -4.769531 1.003906 -5.691406 1.640625 -6.390625 C 2.285156 -7.085938 3.132812 -7.4375 4.1875 -7.4375 C 5.25 -7.4375 6.097656 -7.085938 6.734375 -6.390625 C 7.367188 -5.691406 7.6875 -4.769531 7.6875 -3.625 C 7.6875 -2.46875 7.367188 -1.539062 6.734375 -0.84375 C 6.097656 -0.144531 5.25 0.203125 4.1875 0.203125 Z M 7.15625 -11.8125 L 8.5 -11.8125 L 6.71875 -10.015625 L 5.921875 -10.015625 Z M 3.671875 -10.390625 L 4.859375 -10.390625 L 6.4375 -8.59375 L 5.640625 -8.59375 L 4.265625 -9.6875 L 2.890625 -8.59375 L 2.09375 -8.59375 Z M 3.671875 -10.390625 "/></g></g><g style="fill:#ffffff;fill-opacity:1;"><g transform="translate(298.231059, 42.125495)"><path style="stroke:none" d=""/></g></g><g style="fill:#ffffff;fill-opacity:1;"><g transform="translate(302.659091, 42.125495)"><path style="stroke:none" d="M 1.5 -6.5 L 0.40625 -6.5 L 0.40625 -7.234375 L 1.5 -7.234375 L 1.5 -9.484375 L 2.765625 -9.484375 L 2.765625 -7.234375 L 5.125 -7.234375 L 5.125 -6.5 L 2.765625 -6.5 L 2.765625 -1.90625 C 2.765625 -1.300781 2.820312 -0.910156 2.9375 -0.734375 C 3.050781 -0.554688 3.269531 -0.46875 3.59375 -0.46875 C 3.914062 -0.46875 4.148438 -0.566406 4.296875 -0.765625 C 4.453125 -0.960938 4.535156 -1.273438 4.546875 -1.703125 L 5.484375 -1.703125 C 5.453125 -1.046875 5.273438 -0.5625 4.953125 -0.25 C 4.628906 0.0507812 4.140625 0.203125 3.484375 0.203125 C 2.765625 0.203125 2.253906 0.0390625 1.953125 -0.28125 C 1.648438 -0.601562 1.5 -1.144531 1.5 -1.90625 Z M 1.5 -6.5 "/></g></g><g style="fill:#ffffff;fill-opacity:1;"><g transform="translate(308.257048, 42.125495)"><path style="stroke:none" d="M 0.578125 0 L 0.578125 -0.71875 L 1.703125 -0.71875 L 1.703125 -9.875 L 0.5 -9.875 L 0.5 -10.59375 L 2.953125 -10.59375 L 2.953125 -5.953125 C 3.179688 -6.441406 3.476562 -6.8125 3.84375 -7.0625 C 4.21875 -7.3125 4.648438 -7.4375 5.140625 -7.4375 C 5.941406 -7.4375 6.53125 -7.207031 6.90625 -6.75 C 7.28125 -6.289062 7.46875 -5.570312 7.46875 -4.59375 L 7.46875 -0.71875 L 8.59375 -0.71875 L 8.59375 0 L 5.125 0 L 5.125 -0.71875 L 6.21875 -0.71875 L 6.21875 -4.203125 C 6.21875 -5.085938 6.109375 -5.691406 5.890625 -6.015625 C 5.671875 -6.335938 5.285156 -6.5 4.734375 -6.5 C 4.148438 -6.5 3.707031 -6.285156 3.40625 -5.859375 C 3.101562 -5.441406 2.953125 -4.832031 2.953125 -4.03125 L 2.953125 -0.71875 L 4.046875 -0.71875 L 4.046875 0 Z M 0.578125 0 "/></g></g><g style="fill:#ffffff;fill-opacity:1;"><g transform="translate(317.228743, 42.125495)"><path style="stroke:none" d="M 7.546875 -3.484375 L 2.15625 -3.484375 L 2.15625 -3.4375 C 2.15625 -2.457031 2.335938 -1.71875 2.703125 -1.21875 C 3.078125 -0.71875 3.617188 -0.46875 4.328125 -0.46875 C 4.878906 -0.46875 5.332031 -0.613281 5.6875 -0.90625 C 6.039062 -1.195312 6.285156 -1.625 6.421875 -2.1875 L 7.4375 -2.1875 C 7.226562 -1.394531 6.851562 -0.796875 6.3125 -0.390625 C 5.78125 0.00390625 5.078125 0.203125 4.203125 0.203125 C 3.148438 0.203125 2.300781 -0.144531 1.65625 -0.84375 C 1.007812 -1.539062 0.6875 -2.46875 0.6875 -3.625 C 0.6875 -4.757812 1.003906 -5.675781 1.640625 -6.375 C 2.273438 -7.082031 3.101562 -7.4375 4.125 -7.4375 C 5.21875 -7.4375 6.054688 -7.097656 6.640625 -6.421875 C 7.222656 -5.742188 7.523438 -4.765625 7.546875 -3.484375 Z M 6.078125 -4.203125 C 6.046875 -5.046875 5.863281 -5.679688 5.53125 -6.109375 C 5.207031 -6.535156 4.738281 -6.75 4.125 -6.75 C 3.550781 -6.75 3.097656 -6.535156 2.765625 -6.109375 C 2.429688 -5.679688 2.226562 -5.046875 2.15625 -4.203125 Z M 3.546875 -11.140625 L 4.703125 -11.140625 L 6.296875 -8.59375 L 5.5 -8.59375 L 4.125 -10.359375 L 2.75 -8.59375 L 1.953125 -8.59375 Z M 3.546875 -11.140625 "/></g></g><g style="fill:#ffffff;fill-opacity:1;"><g transform="translate(325.472635, 42.125495)"><path style="stroke:none" d="M 7.21875 -5.828125 C 7.457031 -6.359375 7.765625 -6.757812 8.140625 -7.03125 C 8.515625 -7.300781 8.953125 -7.4375 9.453125 -7.4375 C 10.210938 -7.4375 10.773438 -7.195312 11.140625 -6.71875 C 11.515625 -6.25 11.703125 -5.539062 11.703125 -4.59375 L 11.703125 -0.71875 L 12.828125 -0.71875 L 12.828125 0 L 9.359375 0 L 9.359375 -0.71875 L 10.453125 -0.71875 L 10.453125 -4.453125 C 10.453125 -5.191406 10.34375 -5.71875 10.125 -6.03125 C 9.90625 -6.34375 9.546875 -6.5 9.046875 -6.5 C 8.484375 -6.5 8.054688 -6.285156 7.765625 -5.859375 C 7.472656 -5.441406 7.328125 -4.832031 7.328125 -4.03125 L 7.328125 -0.71875 L 8.421875 -0.71875 L 8.421875 0 L 4.984375 0 L 4.984375 -0.71875 L 6.078125 -0.71875 L 6.078125 -4.5 C 6.078125 -5.226562 5.96875 -5.742188 5.75 -6.046875 C 5.53125 -6.347656 5.171875 -6.5 4.671875 -6.5 C 4.109375 -6.5 3.679688 -6.285156 3.390625 -5.859375 C 3.097656 -5.441406 2.953125 -4.832031 2.953125 -4.03125 L 2.953125 -0.71875 L 4.046875 -0.71875 L 4.046875 0 L 0.578125 0 L 0.578125 -0.71875 L 1.703125 -0.71875 L 1.703125 -6.515625 L 0.5 -6.515625 L 0.5 -7.234375 L 2.953125 -7.234375 L 2.953125 -5.953125 C 3.179688 -6.429688 3.472656 -6.796875 3.828125 -7.046875 C 4.191406 -7.304688 4.601562 -7.4375 5.0625 -7.4375 C 5.625 -7.4375 6.09375 -7.296875 6.46875 -7.015625 C 6.84375 -6.734375 7.09375 -6.335938 7.21875 -5.828125 Z M 7.21875 -5.828125 "/></g></g><g style="fill:#ffffff;fill-opacity:1;"><g transform="translate(338.681909, 42.125495)"><path style="stroke:none" d=""/></g></g><g style="fill:#ffffff;fill-opacity:1;"><g transform="translate(343.10994, 42.125495)"><path style="stroke:none" d="M 7.171875 -2.171875 C 6.992188 -1.398438 6.648438 -0.8125 6.140625 -0.40625 C 5.640625 0 4.988281 0.203125 4.1875 0.203125 C 3.132812 0.203125 2.285156 -0.144531 1.640625 -0.84375 C 1.003906 -1.539062 0.6875 -2.46875 0.6875 -3.625 C 0.6875 -4.78125 1.003906 -5.703125 1.640625 -6.390625 C 2.285156 -7.085938 3.132812 -7.4375 4.1875 -7.4375 C 4.644531 -7.4375 5.097656 -7.378906 5.546875 -7.265625 C 6.003906 -7.160156 6.460938 -7 6.921875 -6.78125 L 6.921875 -4.9375 L 6.203125 -4.9375 C 6.109375 -5.570312 5.898438 -6.03125 5.578125 -6.3125 C 5.253906 -6.601562 4.796875 -6.75 4.203125 -6.75 C 3.523438 -6.75 3.015625 -6.488281 2.671875 -5.96875 C 2.328125 -5.445312 2.15625 -4.664062 2.15625 -3.625 C 2.15625 -2.582031 2.328125 -1.796875 2.671875 -1.265625 C 3.015625 -0.734375 3.523438 -0.46875 4.203125 -0.46875 C 4.742188 -0.46875 5.175781 -0.609375 5.5 -0.890625 C 5.820312 -1.171875 6.039062 -1.597656 6.15625 -2.171875 Z M 7.171875 -2.171875 "/></g></g><g style="fill:#ffffff;fill-opacity:1;"><g transform="translate(350.91171, 42.125495)"><path style="stroke:none" d="M 0.578125 0 L 0.578125 -0.71875 L 1.703125 -0.71875 L 1.703125 -9.875 L 0.5 -9.875 L 0.5 -10.59375 L 2.953125 -10.59375 L 2.953125 -5.953125 C 3.179688 -6.441406 3.476562 -6.8125 3.84375 -7.0625 C 4.21875 -7.3125 4.648438 -7.4375 5.140625 -7.4375 C 5.941406 -7.4375 6.53125 -7.207031 6.90625 -6.75 C 7.28125 -6.289062 7.46875 -5.570312 7.46875 -4.59375 L 7.46875 -0.71875 L 8.59375 -0.71875 L 8.59375 0 L 5.125 0 L 5.125 -0.71875 L 6.21875 -0.71875 L 6.21875 -4.203125 C 6.21875 -5.085938 6.109375 -5.691406 5.890625 -6.015625 C 5.671875 -6.335938 5.285156 -6.5 4.734375 -6.5 C 4.148438 -6.5 3.707031 -6.285156 3.40625 -5.859375 C 3.101562 -5.441406 2.953125 -4.832031 2.953125 -4.03125 L 2.953125 -0.71875 L 4.046875 -0.71875 L 4.046875 0 Z M 0.578125 0 "/></g></g><g style="fill:#ffffff;fill-opacity:1;"><g transform="translate(359.883405, 42.125495)"><path style="stroke:none" d="M 4.9375 -7.234375 L 7.28125 -7.234375 L 7.28125 -0.71875 L 8.453125 -0.71875 L 8.453125 0 L 6.015625 0 L 6.015625 -1.28125 C 5.785156 -0.800781 5.488281 -0.429688 5.125 -0.171875 C 4.757812 0.078125 4.332031 0.203125 3.84375 0.203125 C 3.039062 0.203125 2.445312 -0.0234375 2.0625 -0.484375 C 1.6875 -0.941406 1.5 -1.660156 1.5 -2.640625 L 1.5 -6.5 L 0.375 -6.5 L 0.375 -7.234375 L 2.765625 -7.234375 L 2.765625 -3.015625 C 2.765625 -2.140625 2.867188 -1.535156 3.078125 -1.203125 C 3.296875 -0.878906 3.679688 -0.71875 4.234375 -0.71875 C 4.816406 -0.71875 5.257812 -0.929688 5.5625 -1.359375 C 5.863281 -1.785156 6.015625 -2.40625 6.015625 -3.21875 L 6.015625 -6.5 L 4.9375 -6.5 Z M 4.921875 -11.140625 L 6.265625 -11.140625 L 3.953125 -8.59375 L 3.15625 -8.59375 Z M 4.921875 -11.140625 "/></g></g><g style="fill:#ffffff;fill-opacity:1;"><g transform="translate(368.8551, 42.125495)"><path style="stroke:none" d="M 1.5 -6.5 L 0.40625 -6.5 L 0.40625 -7.234375 L 1.5 -7.234375 L 1.5 -9.484375 L 2.765625 -9.484375 L 2.765625 -7.234375 L 5.125 -7.234375 L 5.125 -6.5 L 2.765625 -6.5 L 2.765625 -1.90625 C 2.765625 -1.300781 2.820312 -0.910156 2.9375 -0.734375 C 3.050781 -0.554688 3.269531 -0.46875 3.59375 -0.46875 C 3.914062 -0.46875 4.148438 -0.566406 4.296875 -0.765625 C 4.453125 -0.960938 4.535156 -1.273438 4.546875 -1.703125 L 5.484375 -1.703125 C 5.453125 -1.046875 5.273438 -0.5625 4.953125 -0.25 C 4.628906 0.0507812 4.140625 0.203125 3.484375 0.203125 C 2.765625 0.203125 2.253906 0.0390625 1.953125 -0.28125 C 1.648438 -0.601562 1.5 -1.144531 1.5 -1.90625 Z M 1.5 -6.5 "/></g></g><g style="fill:#ffffff;fill-opacity:1;"><g transform="translate(374.453057, 42.125495)"><path style="stroke:none" d=""/></g></g><g style="fill:#ffffff;fill-opacity:1;"><g transform="translate(378.881089, 42.125495)"><path style="stroke:none" d="M 0.578125 0 L 0.578125 -0.71875 L 1.703125 -0.71875 L 1.703125 -6.5 L 0.5 -6.5 L 0.5 -7.234375 L 2.953125 -7.234375 L 2.953125 -5.953125 C 3.179688 -6.441406 3.476562 -6.8125 3.84375 -7.0625 C 4.21875 -7.3125 4.648438 -7.4375 5.140625 -7.4375 C 5.941406 -7.4375 6.53125 -7.207031 6.90625 -6.75 C 7.28125 -6.289062 7.46875 -5.570312 7.46875 -4.59375 L 7.46875 -0.71875 L 8.59375 -0.71875 L 8.59375 0 L 5.125 0 L 5.125 -0.71875 L 6.21875 -0.71875 L 6.21875 -4.203125 C 6.21875 -5.085938 6.109375 -5.691406 5.890625 -6.015625 C 5.671875 -6.347656 5.285156 -6.515625 4.734375 -6.515625 C 4.148438 -6.515625 3.707031 -6.300781 3.40625 -5.875 C 3.101562 -5.457031 2.953125 -4.84375 2.953125 -4.03125 L 2.953125 -0.71875 L 4.046875 -0.71875 L 4.046875 0 Z M 0.578125 0 "/></g></g><g style="fill:#ffffff;fill-opacity:1;"><g transform="translate(387.852784, 42.125495)"><path style="stroke:none" d="M 3.9375 -9.328125 L 3.546875 -9.703125 C 3.429688 -9.804688 3.335938 -9.875 3.265625 -9.90625 C 3.191406 -9.945312 3.109375 -9.96875 3.015625 -9.96875 C 2.828125 -9.96875 2.675781 -9.875 2.5625 -9.6875 C 2.457031 -9.507812 2.394531 -9.25 2.375 -8.90625 L 1.71875 -8.90625 C 1.726562 -9.519531 1.847656 -9.992188 2.078125 -10.328125 C 2.316406 -10.660156 2.640625 -10.828125 3.046875 -10.828125 C 3.222656 -10.828125 3.382812 -10.796875 3.53125 -10.734375 C 3.675781 -10.671875 3.832031 -10.5625 4 -10.40625 L 4.390625 -10.03125 C 4.492188 -9.925781 4.582031 -9.851562 4.65625 -9.8125 C 4.726562 -9.78125 4.816406 -9.765625 4.921875 -9.765625 C 5.109375 -9.765625 5.253906 -9.851562 5.359375 -10.03125 C 5.472656 -10.21875 5.539062 -10.484375 5.5625 -10.828125 L 6.21875 -10.828125 C 6.207031 -10.210938 6.082031 -9.738281 5.84375 -9.40625 C 5.613281 -9.070312 5.296875 -8.90625 4.890625 -8.90625 C 4.710938 -8.90625 4.550781 -8.9375 4.40625 -9 C 4.257812 -9.0625 4.101562 -9.171875 3.9375 -9.328125 Z M 4.859375 -7.234375 L 7.203125 -7.234375 L 7.203125 -0.71875 L 8.375 -0.71875 L 8.375 0 L 5.9375 0 L 5.9375 -1.28125 C 5.707031 -0.800781 5.410156 -0.429688 5.046875 -0.171875 C 4.679688 0.078125 4.253906 0.203125 3.765625 0.203125 C 2.960938 0.203125 2.367188 -0.0234375 1.984375 -0.484375 C 1.609375 -0.941406 1.421875 -1.660156 1.421875 -2.640625 L 1.421875 -6.5 L 0.296875 -6.5 L 0.296875 -7.234375 L 2.6875 -7.234375 L 2.6875 -3.015625 C 2.6875 -2.140625 2.789062 -1.535156 3 -1.203125 C 3.21875 -0.878906 3.601562 -0.71875 4.15625 -0.71875 C 4.738281 -0.71875 5.179688 -0.929688 5.484375 -1.359375 C 5.785156 -1.785156 5.9375 -2.40625 5.9375 -3.21875 L 5.9375 -6.5 L 4.859375 -6.5 Z M 6.90625 -5.75 L 6.90625 -6.390625 C 7.46875 -5.992188 7.859375 -5.796875 8.078125 -5.796875 C 8.285156 -5.796875 8.453125 -5.867188 8.578125 -6.015625 C 8.703125 -6.171875 8.765625 -6.375 8.765625 -6.625 C 8.765625 -6.75 8.75 -6.875 8.71875 -7 C 8.695312 -7.132812 8.65625 -7.269531 8.59375 -7.40625 L 9.453125 -7.40625 C 9.492188 -7.238281 9.523438 -7.078125 9.546875 -6.921875 C 9.566406 -6.773438 9.578125 -6.628906 9.578125 -6.484375 C 9.578125 -5.972656 9.472656 -5.578125 9.265625 -5.296875 C 9.066406 -5.015625 8.785156 -4.875 8.421875 -4.875 C 8.203125 -4.875 7.972656 -4.941406 7.734375 -5.078125 C 7.492188 -5.210938 7.21875 -5.4375 6.90625 -5.75 Z M 6.90625 -5.75 "/></g></g><g style="fill:#ffffff;fill-opacity:1;"><g transform="translate(396.824479, 42.125495)"><path style="stroke:none" d="M 5.546875 -2.265625 L 5.546875 -3.796875 L 3.9375 -3.796875 C 3.3125 -3.796875 2.847656 -3.660156 2.546875 -3.390625 C 2.242188 -3.128906 2.09375 -2.722656 2.09375 -2.171875 C 2.09375 -1.671875 2.242188 -1.269531 2.546875 -0.96875 C 2.859375 -0.675781 3.273438 -0.53125 3.796875 -0.53125 C 4.328125 -0.53125 4.75 -0.691406 5.0625 -1.015625 C 5.382812 -1.335938 5.546875 -1.753906 5.546875 -2.265625 Z M 6.796875 -4.515625 L 6.796875 -0.71875 L 7.921875 -0.71875 L 7.921875 0 L 5.546875 0 L 5.546875 -0.78125 C 5.265625 -0.445312 4.941406 -0.195312 4.578125 -0.03125 C 4.222656 0.125 3.800781 0.203125 3.3125 0.203125 C 2.507812 0.203125 1.867188 -0.0078125 1.390625 -0.4375 C 0.921875 -0.863281 0.6875 -1.441406 0.6875 -2.171875 C 0.6875 -2.921875 0.957031 -3.5 1.5 -3.90625 C 2.039062 -4.320312 2.804688 -4.53125 3.796875 -4.53125 L 5.546875 -4.53125 L 5.546875 -5.03125 C 5.546875 -5.582031 5.378906 -6.003906 5.046875 -6.296875 C 4.710938 -6.597656 4.242188 -6.75 3.640625 -6.75 C 3.140625 -6.75 2.738281 -6.632812 2.4375 -6.40625 C 2.144531 -6.1875 1.96875 -5.851562 1.90625 -5.40625 L 1.25 -5.40625 L 1.25 -6.875 C 1.6875 -7.0625 2.109375 -7.203125 2.515625 -7.296875 C 2.929688 -7.390625 3.332031 -7.4375 3.71875 -7.4375 C 4.726562 -7.4375 5.492188 -7.1875 6.015625 -6.6875 C 6.535156 -6.1875 6.796875 -5.460938 6.796875 -4.515625 Z M 6.796875 -4.515625 "/></g></g><g style="fill:#ffffff;fill-opacity:1;"><g transform="translate(405.129589, 42.125495)"><path style="stroke:none" d=""/></g></g><g style="fill:#ffffff;fill-opacity:1;"><g transform="translate(409.55762, 42.125495)"><path style="stroke:none" d="M 0.609375 -4.15625 L 6.359375 -4.15625 L 6.359375 -3.25 L 0.609375 -3.25 Z M 0.609375 -4.15625 "/></g></g><g style="fill:#ffffff;fill-opacity:1;"><g transform="translate(416.522757, 42.125495)"><path style="stroke:none" d=""/></g></g><g style="fill:#ffffff;fill-opacity:1;"><g transform="translate(420.950789, 42.125495)"><path style="stroke:none" d="M 7.3125 -6.5 L 7.3125 -0.15625 C 7.3125 0.882812 7.023438 1.6875 6.453125 2.25 C 5.878906 2.8125 5.066406 3.09375 4.015625 3.09375 C 3.535156 3.09375 3.078125 3.050781 2.640625 2.96875 C 2.210938 2.882812 1.796875 2.753906 1.390625 2.578125 L 1.390625 1.0625 L 2.046875 1.0625 C 2.128906 1.53125 2.320312 1.875 2.625 2.09375 C 2.925781 2.3125 3.363281 2.421875 3.9375 2.421875 C 4.664062 2.421875 5.203125 2.210938 5.546875 1.796875 C 5.890625 1.378906 6.0625 0.726562 6.0625 -0.15625 L 6.0625 -1.125 C 5.820312 -0.675781 5.507812 -0.34375 5.125 -0.125 C 4.75 0.09375 4.28125 0.203125 3.71875 0.203125 C 2.832031 0.203125 2.101562 -0.148438 1.53125 -0.859375 C 0.96875 -1.566406 0.6875 -2.488281 0.6875 -3.625 C 0.6875 -4.757812 0.96875 -5.675781 1.53125 -6.375 C 2.09375 -7.082031 2.820312 -7.4375 3.71875 -7.4375 C 4.28125 -7.4375 4.75 -7.328125 5.125 -7.109375 C 5.507812 -6.890625 5.820312 -6.554688 6.0625 -6.109375 L 6.0625 -7.234375 L 8.515625 -7.234375 L 8.515625 -6.5 Z M 6.0625 -3.96875 C 6.0625 -4.84375 5.894531 -5.507812 5.5625 -5.96875 C 5.226562 -6.425781 4.742188 -6.65625 4.109375 -6.65625 C 3.460938 -6.65625 2.972656 -6.398438 2.640625 -5.890625 C 2.316406 -5.378906 2.15625 -4.625 2.15625 -3.625 C 2.15625 -2.625 2.316406 -1.863281 2.640625 -1.34375 C 2.972656 -0.832031 3.460938 -0.578125 4.109375 -0.578125 C 4.742188 -0.578125 5.226562 -0.804688 5.5625 -1.265625 C 5.894531 -1.722656 6.0625 -2.390625 6.0625 -3.265625 Z M 6.0625 -3.96875 "/></g></g><g style="fill:#ffffff;fill-opacity:1;"><g transform="translate(429.868069, 42.125495)"><path style="stroke:none" d="M 1.359375 -9.484375 C 1.359375 -9.691406 1.429688 -9.867188 1.578125 -10.015625 C 1.734375 -10.171875 1.914062 -10.25 2.125 -10.25 C 2.332031 -10.25 2.515625 -10.171875 2.671875 -10.015625 C 2.828125 -9.867188 2.90625 -9.691406 2.90625 -9.484375 C 2.90625 -9.265625 2.828125 -9.082031 2.671875 -8.9375 C 2.523438 -8.789062 2.34375 -8.71875 2.125 -8.71875 C 1.914062 -8.71875 1.734375 -8.789062 1.578125 -8.9375 C 1.429688 -9.082031 1.359375 -9.265625 1.359375 -9.484375 Z M 2.953125 -0.71875 L 4.140625 -0.71875 L 4.140625 0 L 0.5 0 L 0.5 -0.71875 L 1.703125 -0.71875 L 1.703125 -6.5 L 0.5 -6.5 L 0.5 -7.234375 L 2.953125 -7.234375 Z M 2.953125 -0.71875 "/></g></g><g style="fill:#ffffff;fill-opacity:1;"><g transform="translate(434.323308, 42.125495)"><path style="stroke:none" d="M 5.140625 -11.140625 L 6.484375 -11.140625 L 4.171875 -8.59375 L 3.375 -8.59375 Z M 4.171875 -0.46875 C 4.847656 -0.46875 5.359375 -0.734375 5.703125 -1.265625 C 6.046875 -1.796875 6.21875 -2.582031 6.21875 -3.625 C 6.21875 -4.65625 6.046875 -5.429688 5.703125 -5.953125 C 5.359375 -6.484375 4.847656 -6.75 4.171875 -6.75 C 3.503906 -6.75 3 -6.484375 2.65625 -5.953125 C 2.3125 -5.429688 2.140625 -4.65625 2.140625 -3.625 C 2.140625 -2.582031 2.3125 -1.796875 2.65625 -1.265625 C 3 -0.734375 3.503906 -0.46875 4.171875 -0.46875 Z M 4.171875 0.203125 C 3.117188 0.203125 2.269531 -0.144531 1.625 -0.84375 C 0.988281 -1.539062 0.671875 -2.46875 0.671875 -3.625 C 0.671875 -4.769531 0.988281 -5.691406 1.625 -6.390625 C 2.269531 -7.085938 3.117188 -7.4375 4.171875 -7.4375 C 5.234375 -7.4375 6.082031 -7.085938 6.71875 -6.390625 C 7.351562 -5.691406 7.671875 -4.769531 7.671875 -3.625 C 7.671875 -2.46875 7.351562 -1.539062 6.71875 -0.84375 C 6.082031 -0.144531 5.234375 0.203125 4.171875 0.203125 Z M 6.328125 -5.75 L 6.328125 -6.390625 C 6.890625 -5.992188 7.28125 -5.796875 7.5 -5.796875 C 7.707031 -5.796875 7.875 -5.867188 8 -6.015625 C 8.125 -6.171875 8.1875 -6.375 8.1875 -6.625 C 8.1875 -6.75 8.171875 -6.875 8.140625 -7 C 8.117188 -7.132812 8.078125 -7.269531 8.015625 -7.40625 L 8.875 -7.40625 C 8.914062 -7.238281 8.945312 -7.078125 8.96875 -6.921875 C 8.988281 -6.773438 9 -6.628906 9 -6.484375 C 9 -5.972656 8.894531 -5.578125 8.6875 -5.296875 C 8.488281 -5.015625 8.207031 -4.875 7.84375 -4.875 C 7.625 -4.875 7.394531 -4.941406 7.15625 -5.078125 C 6.914062 -5.210938 6.640625 -5.4375 6.328125 -5.75 Z M 6.328125 -5.75 "/></g></g><g style="fill:#ffffff;fill-opacity:1;"><g transform="translate(442.71004, 42.125495)"><path style="stroke:none" d="M 1.359375 -9.484375 C 1.359375 -9.691406 1.429688 -9.867188 1.578125 -10.015625 C 1.734375 -10.171875 1.914062 -10.25 2.125 -10.25 C 2.332031 -10.25 2.515625 -10.171875 2.671875 -10.015625 C 2.828125 -9.867188 2.90625 -9.691406 2.90625 -9.484375 C 2.90625 -9.265625 2.828125 -9.082031 2.671875 -8.9375 C 2.523438 -8.789062 2.34375 -8.71875 2.125 -8.71875 C 1.914062 -8.71875 1.734375 -8.789062 1.578125 -8.9375 C 1.429688 -9.082031 1.359375 -9.265625 1.359375 -9.484375 Z M 2.953125 -0.71875 L 4.140625 -0.71875 L 4.140625 0 L 0.5 0 L 0.5 -0.71875 L 1.703125 -0.71875 L 1.703125 -6.5 L 0.5 -6.5 L 0.5 -7.234375 L 2.953125 -7.234375 Z M 2.953125 -0.71875 "/></g></g><g style="fill:#ffffff;fill-opacity:1;"><g transform="translate(447.165279, 42.125495)"><path style="stroke:none" d=""/></g></g><g style="fill:#ffffff;fill-opacity:1;"><g transform="translate(451.593311, 42.125495)"><path style="stroke:none" d="M 0.578125 0 L 0.578125 -0.71875 L 1.703125 -0.71875 L 1.703125 -9.875 L 0.5 -9.875 L 0.5 -10.59375 L 2.953125 -10.59375 L 2.953125 -5.953125 C 3.179688 -6.441406 3.476562 -6.8125 3.84375 -7.0625 C 4.21875 -7.3125 4.648438 -7.4375 5.140625 -7.4375 C 5.941406 -7.4375 6.53125 -7.207031 6.90625 -6.75 C 7.28125 -6.289062 7.46875 -5.570312 7.46875 -4.59375 L 7.46875 -0.71875 L 8.59375 -0.71875 L 8.59375 0 L 5.125 0 L 5.125 -0.71875 L 6.21875 -0.71875 L 6.21875 -4.203125 C 6.21875 -5.085938 6.109375 -5.691406 5.890625 -6.015625 C 5.671875 -6.335938 5.285156 -6.5 4.734375 -6.5 C 4.148438 -6.5 3.707031 -6.285156 3.40625 -5.859375 C 3.101562 -5.441406 2.953125 -4.832031 2.953125 -4.03125 L 2.953125 -0.71875 L 4.046875 -0.71875 L 4.046875 0 Z M 0.578125 0 "/></g></g><g style="fill:#ffffff;fill-opacity:1;"><g transform="translate(460.565006, 42.125495)"><path style="stroke:none" d="M 5.546875 -2.265625 L 5.546875 -3.796875 L 3.9375 -3.796875 C 3.3125 -3.796875 2.847656 -3.660156 2.546875 -3.390625 C 2.242188 -3.128906 2.09375 -2.722656 2.09375 -2.171875 C 2.09375 -1.671875 2.242188 -1.269531 2.546875 -0.96875 C 2.859375 -0.675781 3.273438 -0.53125 3.796875 -0.53125 C 4.328125 -0.53125 4.75 -0.691406 5.0625 -1.015625 C 5.382812 -1.335938 5.546875 -1.753906 5.546875 -2.265625 Z M 6.796875 -4.515625 L 6.796875 -0.71875 L 7.921875 -0.71875 L 7.921875 0 L 5.546875 0 L 5.546875 -0.78125 C 5.265625 -0.445312 4.941406 -0.195312 4.578125 -0.03125 C 4.222656 0.125 3.800781 0.203125 3.3125 0.203125 C 2.507812 0.203125 1.867188 -0.0078125 1.390625 -0.4375 C 0.921875 -0.863281 0.6875 -1.441406 0.6875 -2.171875 C 0.6875 -2.921875 0.957031 -3.5 1.5 -3.90625 C 2.039062 -4.320312 2.804688 -4.53125 3.796875 -4.53125 L 5.546875 -4.53125 L 5.546875 -5.03125 C 5.546875 -5.582031 5.378906 -6.003906 5.046875 -6.296875 C 4.710938 -6.597656 4.242188 -6.75 3.640625 -6.75 C 3.140625 -6.75 2.738281 -6.632812 2.4375 -6.40625 C 2.144531 -6.1875 1.96875 -5.851562 1.90625 -5.40625 L 1.25 -5.40625 L 1.25 -6.875 C 1.6875 -7.0625 2.109375 -7.203125 2.515625 -7.296875 C 2.929688 -7.390625 3.332031 -7.4375 3.71875 -7.4375 C 4.726562 -7.4375 5.492188 -7.1875 6.015625 -6.6875 C 6.535156 -6.1875 6.796875 -5.460938 6.796875 -4.515625 Z M 3.875 1.078125 C 4.09375 1.078125 4.28125 1.15625 4.4375 1.3125 C 4.59375 1.46875 4.671875 1.65625 4.671875 1.875 C 4.671875 2.101562 4.59375 2.289062 4.4375 2.4375 C 4.289062 2.59375 4.101562 2.671875 3.875 2.671875 C 3.644531 2.671875 3.453125 2.59375 3.296875 2.4375 C 3.148438 2.289062 3.078125 2.101562 3.078125 1.875 C 3.078125 1.65625 3.15625 1.46875 3.3125 1.3125 C 3.46875 1.15625 3.65625 1.078125 3.875 1.078125 Z M 3.875 1.078125 "/></g></g><g style="fill:#ffffff;fill-opacity:1;"><g transform="translate(468.870116, 42.125495)"><path style="stroke:none" d="M 0.578125 0 L 0.578125 -0.71875 L 1.703125 -0.71875 L 1.703125 -6.5 L 0.5 -6.5 L 0.5 -7.234375 L 2.953125 -7.234375 L 2.953125 -5.953125 C 3.179688 -6.441406 3.476562 -6.8125 3.84375 -7.0625 C 4.21875 -7.3125 4.648438 -7.4375 5.140625 -7.4375 C 5.941406 -7.4375 6.53125 -7.207031 6.90625 -6.75 C 7.28125 -6.289062 7.46875 -5.570312 7.46875 -4.59375 L 7.46875 -0.71875 L 8.59375 -0.71875 L 8.59375 0 L 5.125 0 L 5.125 -0.71875 L 6.21875 -0.71875 L 6.21875 -4.203125 C 6.21875 -5.085938 6.109375 -5.691406 5.890625 -6.015625 C 5.671875 -6.347656 5.285156 -6.515625 4.734375 -6.515625 C 4.148438 -6.515625 3.707031 -6.300781 3.40625 -5.875 C 3.101562 -5.457031 2.953125 -4.84375 2.953125 -4.03125 L 2.953125 -0.71875 L 4.046875 -0.71875 L 4.046875 0 Z M 0.578125 0 "/></g></g><g style="fill:#ffffff;fill-opacity:1;"><g transform="translate(477.841799, 42.125495)"><path style="stroke:none" d=""/></g></g><g style="fill:#ffffff;fill-opacity:1;"><g transform="translate(482.269842, 42.125495)"><path style="stroke:none" d="M 7.171875 -2.171875 C 6.992188 -1.398438 6.648438 -0.8125 6.140625 -0.40625 C 5.640625 0 4.988281 0.203125 4.1875 0.203125 C 3.132812 0.203125 2.285156 -0.144531 1.640625 -0.84375 C 1.003906 -1.539062 0.6875 -2.46875 0.6875 -3.625 C 0.6875 -4.78125 1.003906 -5.703125 1.640625 -6.390625 C 2.285156 -7.085938 3.132812 -7.4375 4.1875 -7.4375 C 4.644531 -7.4375 5.097656 -7.378906 5.546875 -7.265625 C 6.003906 -7.160156 6.460938 -7 6.921875 -6.78125 L 6.921875 -4.9375 L 6.203125 -4.9375 C 6.109375 -5.570312 5.898438 -6.03125 5.578125 -6.3125 C 5.253906 -6.601562 4.796875 -6.75 4.203125 -6.75 C 3.523438 -6.75 3.015625 -6.488281 2.671875 -5.96875 C 2.328125 -5.445312 2.15625 -4.664062 2.15625 -3.625 C 2.15625 -2.582031 2.328125 -1.796875 2.671875 -1.265625 C 3.015625 -0.734375 3.523438 -0.46875 4.203125 -0.46875 C 4.742188 -0.46875 5.175781 -0.609375 5.5 -0.890625 C 5.820312 -1.171875 6.039062 -1.597656 6.15625 -2.171875 Z M 7.171875 -2.171875 "/></g></g><g style="fill:#ffffff;fill-opacity:1;"><g transform="translate(490.071624, 42.125495)"><path style="stroke:none" d="M 4.9375 -7.234375 L 7.28125 -7.234375 L 7.28125 -0.71875 L 8.453125 -0.71875 L 8.453125 0 L 6.015625 0 L 6.015625 -1.28125 C 5.785156 -0.800781 5.488281 -0.429688 5.125 -0.171875 C 4.757812 0.078125 4.332031 0.203125 3.84375 0.203125 C 3.039062 0.203125 2.445312 -0.0234375 2.0625 -0.484375 C 1.6875 -0.941406 1.5 -1.660156 1.5 -2.640625 L 1.5 -6.5 L 0.375 -6.5 L 0.375 -7.234375 L 2.765625 -7.234375 L 2.765625 -3.015625 C 2.765625 -2.140625 2.867188 -1.535156 3.078125 -1.203125 C 3.296875 -0.878906 3.679688 -0.71875 4.234375 -0.71875 C 4.816406 -0.71875 5.257812 -0.929688 5.5625 -1.359375 C 5.863281 -1.785156 6.015625 -2.40625 6.015625 -3.21875 L 6.015625 -6.5 L 4.9375 -6.5 Z M 3.875 -11.875 C 4.707031 -11.875 5.222656 -11.617188 5.421875 -11.109375 C 5.472656 -10.984375 5.5 -10.851562 5.5 -10.71875 C 5.5 -10.488281 5.425781 -10.25 5.28125 -10 C 5.050781 -9.59375 4.78125 -9.300781 4.46875 -9.125 L 4.46875 -8.59375 L 3.46875 -8.59375 L 3.46875 -9.34375 C 3.957031 -9.59375 4.265625 -9.785156 4.390625 -9.921875 C 4.503906 -10.046875 4.5625 -10.195312 4.5625 -10.375 C 4.5625 -10.644531 4.441406 -10.835938 4.203125 -10.953125 C 4.078125 -11.015625 3.921875 -11.046875 3.734375 -11.046875 C 3.398438 -11.046875 3.046875 -10.96875 2.671875 -10.8125 L 2.671875 -11.703125 C 2.867188 -11.785156 3.191406 -11.835938 3.640625 -11.859375 C 3.722656 -11.867188 3.800781 -11.875 3.875 -11.875 Z M 3.875 -11.875 "/></g></g><g style="fill:#ffffff;fill-opacity:1;"><g transform="translate(499.043307, 42.125495)"><path style="stroke:none" d="M 5.546875 -2.265625 L 5.546875 -3.796875 L 3.9375 -3.796875 C 3.3125 -3.796875 2.847656 -3.660156 2.546875 -3.390625 C 2.242188 -3.128906 2.09375 -2.722656 2.09375 -2.171875 C 2.09375 -1.671875 2.242188 -1.269531 2.546875 -0.96875 C 2.859375 -0.675781 3.273438 -0.53125 3.796875 -0.53125 C 4.328125 -0.53125 4.75 -0.691406 5.0625 -1.015625 C 5.382812 -1.335938 5.546875 -1.753906 5.546875 -2.265625 Z M 6.796875 -4.515625 L 6.796875 -0.71875 L 7.921875 -0.71875 L 7.921875 0 L 5.546875 0 L 5.546875 -0.78125 C 5.265625 -0.445312 4.941406 -0.195312 4.578125 -0.03125 C 4.222656 0.125 3.800781 0.203125 3.3125 0.203125 C 2.507812 0.203125 1.867188 -0.0078125 1.390625 -0.4375 C 0.921875 -0.863281 0.6875 -1.441406 0.6875 -2.171875 C 0.6875 -2.921875 0.957031 -3.5 1.5 -3.90625 C 2.039062 -4.320312 2.804688 -4.53125 3.796875 -4.53125 L 5.546875 -4.53125 L 5.546875 -5.03125 C 5.546875 -5.582031 5.378906 -6.003906 5.046875 -6.296875 C 4.710938 -6.597656 4.242188 -6.75 3.640625 -6.75 C 3.140625 -6.75 2.738281 -6.632812 2.4375 -6.40625 C 2.144531 -6.1875 1.96875 -5.851562 1.90625 -5.40625 L 1.25 -5.40625 L 1.25 -6.875 C 1.6875 -7.0625 2.109375 -7.203125 2.515625 -7.296875 C 2.929688 -7.390625 3.332031 -7.4375 3.71875 -7.4375 C 4.726562 -7.4375 5.492188 -7.1875 6.015625 -6.6875 C 6.535156 -6.1875 6.796875 -5.460938 6.796875 -4.515625 Z M 6.796875 -4.515625 "/></g></g><g style="fill:#ffffff;fill-opacity:1;"><g transform="translate(507.348428, 42.125495)"><path style="stroke:none" d=""/></g></g><g style="fill:#ffffff;fill-opacity:1;"><g transform="translate(511.776449, 42.125495)"><path style="stroke:none" d="M 1.609375 -0.71875 L 1.609375 -9.875 L 0.40625 -9.875 L 0.40625 -10.59375 L 2.859375 -10.59375 L 2.859375 -6.109375 C 3.097656 -6.554688 3.40625 -6.890625 3.78125 -7.109375 C 4.164062 -7.328125 4.640625 -7.4375 5.203125 -7.4375 C 6.085938 -7.4375 6.8125 -7.082031 7.375 -6.375 C 7.9375 -5.675781 8.21875 -4.757812 8.21875 -3.625 C 8.21875 -2.488281 7.9375 -1.566406 7.375 -0.859375 C 6.8125 -0.148438 6.085938 0.203125 5.203125 0.203125 C 4.640625 0.203125 4.164062 0.09375 3.78125 -0.125 C 3.40625 -0.34375 3.097656 -0.675781 2.859375 -1.125 L 2.859375 0 L 0.40625 0 L 0.40625 -0.71875 Z M 2.859375 -3.265625 C 2.859375 -2.390625 3.023438 -1.722656 3.359375 -1.265625 C 3.691406 -0.804688 4.175781 -0.578125 4.8125 -0.578125 C 5.445312 -0.578125 5.925781 -0.832031 6.25 -1.34375 C 6.582031 -1.863281 6.75 -2.625 6.75 -3.625 C 6.75 -4.625 6.582031 -5.378906 6.25 -5.890625 C 5.925781 -6.398438 5.445312 -6.65625 4.8125 -6.65625 C 4.175781 -6.65625 3.691406 -6.425781 3.359375 -5.96875 C 3.023438 -5.507812 2.859375 -4.84375 2.859375 -3.96875 Z M 2.859375 -3.265625 "/></g></g><g style="fill:#ffffff;fill-opacity:1;"><g transform="translate(520.693717, 42.125495)"><path style="stroke:none" d="M 5.546875 -2.265625 L 5.546875 -3.796875 L 3.9375 -3.796875 C 3.3125 -3.796875 2.847656 -3.660156 2.546875 -3.390625 C 2.242188 -3.128906 2.09375 -2.722656 2.09375 -2.171875 C 2.09375 -1.671875 2.242188 -1.269531 2.546875 -0.96875 C 2.859375 -0.675781 3.273438 -0.53125 3.796875 -0.53125 C 4.328125 -0.53125 4.75 -0.691406 5.0625 -1.015625 C 5.382812 -1.335938 5.546875 -1.753906 5.546875 -2.265625 Z M 6.796875 -4.515625 L 6.796875 -0.71875 L 7.921875 -0.71875 L 7.921875 0 L 5.546875 0 L 5.546875 -0.78125 C 5.265625 -0.445312 4.941406 -0.195312 4.578125 -0.03125 C 4.222656 0.125 3.800781 0.203125 3.3125 0.203125 C 2.507812 0.203125 1.867188 -0.0078125 1.390625 -0.4375 C 0.921875 -0.863281 0.6875 -1.441406 0.6875 -2.171875 C 0.6875 -2.921875 0.957031 -3.5 1.5 -3.90625 C 2.039062 -4.320312 2.804688 -4.53125 3.796875 -4.53125 L 5.546875 -4.53125 L 5.546875 -5.03125 C 5.546875 -5.582031 5.378906 -6.003906 5.046875 -6.296875 C 4.710938 -6.597656 4.242188 -6.75 3.640625 -6.75 C 3.140625 -6.75 2.738281 -6.632812 2.4375 -6.40625 C 2.144531 -6.1875 1.96875 -5.851562 1.90625 -5.40625 L 1.25 -5.40625 L 1.25 -6.875 C 1.6875 -7.0625 2.109375 -7.203125 2.515625 -7.296875 C 2.929688 -7.390625 3.332031 -7.4375 3.71875 -7.4375 C 4.726562 -7.4375 5.492188 -7.1875 6.015625 -6.6875 C 6.535156 -6.1875 6.796875 -5.460938 6.796875 -4.515625 Z M 3.875 1.078125 C 4.09375 1.078125 4.28125 1.15625 4.4375 1.3125 C 4.59375 1.46875 4.671875 1.65625 4.671875 1.875 C 4.671875 2.101562 4.59375 2.289062 4.4375 2.4375 C 4.289062 2.59375 4.101562 2.671875 3.875 2.671875 C 3.644531 2.671875 3.453125 2.59375 3.296875 2.4375 C 3.148438 2.289062 3.078125 2.101562 3.078125 1.875 C 3.078125 1.65625 3.15625 1.46875 3.3125 1.3125 C 3.46875 1.15625 3.65625 1.078125 3.875 1.078125 Z M 3.875 1.078125 "/></g></g><g style="fill:#ffffff;fill-opacity:1;"><g transform="translate(528.998838, 42.125495)"><path style="stroke:none" d="M 0.578125 0 L 0.578125 -0.71875 L 1.703125 -0.71875 L 1.703125 -6.5 L 0.5 -6.5 L 0.5 -7.234375 L 2.953125 -7.234375 L 2.953125 -5.953125 C 3.179688 -6.441406 3.476562 -6.8125 3.84375 -7.0625 C 4.21875 -7.3125 4.648438 -7.4375 5.140625 -7.4375 C 5.941406 -7.4375 6.53125 -7.207031 6.90625 -6.75 C 7.28125 -6.289062 7.46875 -5.570312 7.46875 -4.59375 L 7.46875 -0.71875 L 8.59375 -0.71875 L 8.59375 0 L 5.125 0 L 5.125 -0.71875 L 6.21875 -0.71875 L 6.21875 -4.203125 C 6.21875 -5.085938 6.109375 -5.691406 5.890625 -6.015625 C 5.671875 -6.347656 5.285156 -6.515625 4.734375 -6.515625 C 4.148438 -6.515625 3.707031 -6.300781 3.40625 -5.875 C 3.101562 -5.457031 2.953125 -4.84375 2.953125 -4.03125 L 2.953125 -0.71875 L 4.046875 -0.71875 L 4.046875 0 Z M 0.578125 0 "/></g></g><g style="fill:#ffffff;fill-opacity:1;"><g transform="translate(537.970522, 42.125495)"><path style="stroke:none" d=""/></g></g><g style="fill:#ffffff;fill-opacity:1;"><g transform="translate(542.398565, 42.125495)"><path style="stroke:none" d="M 3.4375 0 L 0.78125 -6.5 L -0.046875 -6.5 L -0.046875 -7.234375 L 3.28125 -7.234375 L 3.28125 -6.5 L 2.125 -6.5 L 4.171875 -1.53125 L 6.203125 -6.5 L 5.125 -6.5 L 5.125 -7.234375 L 7.828125 -7.234375 L 7.828125 -6.5 L 7.015625 -6.5 L 4.359375 0 Z M 3.4375 0 "/></g></g><g style="fill:#ffffff;fill-opacity:1;"><g transform="translate(550.268342, 42.125495)"><path style="stroke:none" d="M 5.546875 -2.265625 L 5.546875 -3.796875 L 3.9375 -3.796875 C 3.3125 -3.796875 2.847656 -3.660156 2.546875 -3.390625 C 2.242188 -3.128906 2.09375 -2.722656 2.09375 -2.171875 C 2.09375 -1.671875 2.242188 -1.269531 2.546875 -0.96875 C 2.859375 -0.675781 3.273438 -0.53125 3.796875 -0.53125 C 4.328125 -0.53125 4.75 -0.691406 5.0625 -1.015625 C 5.382812 -1.335938 5.546875 -1.753906 5.546875 -2.265625 Z M 6.796875 -4.515625 L 6.796875 -0.71875 L 7.921875 -0.71875 L 7.921875 0 L 5.546875 0 L 5.546875 -0.78125 C 5.265625 -0.445312 4.941406 -0.195312 4.578125 -0.03125 C 4.222656 0.125 3.800781 0.203125 3.3125 0.203125 C 2.507812 0.203125 1.867188 -0.0078125 1.390625 -0.4375 C 0.921875 -0.863281 0.6875 -1.441406 0.6875 -2.171875 C 0.6875 -2.921875 0.957031 -3.5 1.5 -3.90625 C 2.039062 -4.320312 2.804688 -4.53125 3.796875 -4.53125 L 5.546875 -4.53125 L 5.546875 -5.03125 C 5.546875 -5.582031 5.378906 -6.003906 5.046875 -6.296875 C 4.710938 -6.597656 4.242188 -6.75 3.640625 -6.75 C 3.140625 -6.75 2.738281 -6.632812 2.4375 -6.40625 C 2.144531 -6.1875 1.96875 -5.851562 1.90625 -5.40625 L 1.25 -5.40625 L 1.25 -6.875 C 1.6875 -7.0625 2.109375 -7.203125 2.515625 -7.296875 C 2.929688 -7.390625 3.332031 -7.4375 3.71875 -7.4375 C 4.726562 -7.4375 5.492188 -7.1875 6.015625 -6.6875 C 6.535156 -6.1875 6.796875 -5.460938 6.796875 -4.515625 Z M 3.984375 -11.046875 L 3.65625 -11.234375 C 3.570312 -11.285156 3.484375 -11.328125 3.390625 -11.359375 C 3.296875 -11.390625 3.207031 -11.40625 3.125 -11.40625 C 2.945312 -11.40625 2.800781 -11.34375 2.6875 -11.21875 C 2.570312 -11.09375 2.503906 -10.925781 2.484375 -10.71875 L 1.828125 -10.71875 C 1.835938 -11.175781 1.957031 -11.535156 2.1875 -11.796875 C 2.425781 -12.066406 2.738281 -12.203125 3.125 -12.203125 C 3.28125 -12.203125 3.425781 -12.179688 3.5625 -12.140625 C 3.707031 -12.097656 3.90625 -12.007812 4.15625 -11.875 L 4.5 -11.6875 C 4.601562 -11.632812 4.703125 -11.59375 4.796875 -11.5625 C 4.898438 -11.53125 4.988281 -11.515625 5.0625 -11.515625 C 5.25 -11.515625 5.394531 -11.578125 5.5 -11.703125 C 5.601562 -11.828125 5.65625 -11.992188 5.65625 -12.203125 L 6.328125 -12.203125 C 6.316406 -11.722656 6.191406 -11.351562 5.953125 -11.09375 C 5.722656 -10.84375 5.394531 -10.71875 4.96875 -10.71875 C 4.664062 -10.71875 4.351562 -10.816406 4.03125 -11.015625 Z M 3.453125 -10.390625 L 4.640625 -10.390625 L 6.21875 -8.59375 L 5.421875 -8.59375 L 4.046875 -9.6875 L 2.671875 -8.59375 L 1.875 -8.59375 Z M 3.453125 -10.390625 "/></g></g><g style="fill:#ffffff;fill-opacity:1;"><g transform="translate(558.804728, 42.125495)"><path style="stroke:none" d="M 0.578125 0 L 0.578125 -0.71875 L 1.703125 -0.71875 L 1.703125 -6.5 L 0.5 -6.5 L 0.5 -7.234375 L 2.953125 -7.234375 L 2.953125 -5.953125 C 3.179688 -6.441406 3.476562 -6.8125 3.84375 -7.0625 C 4.21875 -7.3125 4.648438 -7.4375 5.140625 -7.4375 C 5.941406 -7.4375 6.53125 -7.207031 6.90625 -6.75 C 7.28125 -6.289062 7.46875 -5.570312 7.46875 -4.59375 L 7.46875 -0.71875 L 8.59375 -0.71875 L 8.59375 0 L 5.125 0 L 5.125 -0.71875 L 6.21875 -0.71875 L 6.21875 -4.203125 C 6.21875 -5.085938 6.109375 -5.691406 5.890625 -6.015625 C 5.671875 -6.347656 5.285156 -6.515625 4.734375 -6.515625 C 4.148438 -6.515625 3.707031 -6.300781 3.40625 -5.875 C 3.101562 -5.457031 2.953125 -4.84375 2.953125 -4.03125 L 2.953125 -0.71875 L 4.046875 -0.71875 L 4.046875 0 Z M 0.578125 0 "/></g></g><g style="fill:#ffffff;fill-opacity:1;"><g transform="translate(567.776434, 42.125495)"><path style="stroke:none" d=""/></g></g><g style="fill:#ffffff;fill-opacity:1;"><g transform="translate(572.204454, 42.125495)"><path style="stroke:none" d="M 7.171875 -2.171875 C 6.992188 -1.398438 6.648438 -0.8125 6.140625 -0.40625 C 5.640625 0 4.988281 0.203125 4.1875 0.203125 C 3.132812 0.203125 2.285156 -0.144531 1.640625 -0.84375 C 1.003906 -1.539062 0.6875 -2.46875 0.6875 -3.625 C 0.6875 -4.78125 1.003906 -5.703125 1.640625 -6.390625 C 2.285156 -7.085938 3.132812 -7.4375 4.1875 -7.4375 C 4.644531 -7.4375 5.097656 -7.378906 5.546875 -7.265625 C 6.003906 -7.160156 6.460938 -7 6.921875 -6.78125 L 6.921875 -4.9375 L 6.203125 -4.9375 C 6.109375 -5.570312 5.898438 -6.03125 5.578125 -6.3125 C 5.253906 -6.601562 4.796875 -6.75 4.203125 -6.75 C 3.523438 -6.75 3.015625 -6.488281 2.671875 -5.96875 C 2.328125 -5.445312 2.15625 -4.664062 2.15625 -3.625 C 2.15625 -2.582031 2.328125 -1.796875 2.671875 -1.265625 C 3.015625 -0.734375 3.523438 -0.46875 4.203125 -0.46875 C 4.742188 -0.46875 5.175781 -0.609375 5.5 -0.890625 C 5.820312 -1.171875 6.039062 -1.597656 6.15625 -2.171875 Z M 7.171875 -2.171875 "/></g></g><g style="fill:#ffffff;fill-opacity:1;"><g transform="translate(580.006213, 42.125495)"><path style="stroke:none" d="M 4.1875 -0.46875 C 4.863281 -0.46875 5.375 -0.734375 5.71875 -1.265625 C 6.0625 -1.796875 6.234375 -2.582031 6.234375 -3.625 C 6.234375 -4.65625 6.0625 -5.429688 5.71875 -5.953125 C 5.375 -6.484375 4.863281 -6.75 4.1875 -6.75 C 3.519531 -6.75 3.015625 -6.484375 2.671875 -5.953125 C 2.328125 -5.429688 2.15625 -4.65625 2.15625 -3.625 C 2.15625 -2.582031 2.328125 -1.796875 2.671875 -1.265625 C 3.015625 -0.734375 3.519531 -0.46875 4.1875 -0.46875 Z M 4.1875 0.203125 C 3.132812 0.203125 2.285156 -0.144531 1.640625 -0.84375 C 1.003906 -1.539062 0.6875 -2.46875 0.6875 -3.625 C 0.6875 -4.769531 1.003906 -5.691406 1.640625 -6.390625 C 2.285156 -7.085938 3.132812 -7.4375 4.1875 -7.4375 C 5.25 -7.4375 6.097656 -7.085938 6.734375 -6.390625 C 7.367188 -5.691406 7.6875 -4.769531 7.6875 -3.625 C 7.6875 -2.46875 7.367188 -1.539062 6.734375 -0.84375 C 6.097656 -0.144531 5.25 0.203125 4.1875 0.203125 Z M 3.203125 -11.140625 L 4.96875 -8.578125 L 4.171875 -8.578125 L 1.859375 -11.140625 Z M 3.203125 -11.140625 "/></g></g><g style="fill:#ffffff;fill-opacity:1;"><g transform="translate(588.392957, 42.125495)"><path style="stroke:none" d="M 0.578125 0 L 0.578125 -0.71875 L 1.703125 -0.71875 L 1.703125 -6.5 L 0.5 -6.5 L 0.5 -7.234375 L 2.953125 -7.234375 L 2.953125 -5.953125 C 3.179688 -6.441406 3.476562 -6.8125 3.84375 -7.0625 C 4.21875 -7.3125 4.648438 -7.4375 5.140625 -7.4375 C 5.941406 -7.4375 6.53125 -7.207031 6.90625 -6.75 C 7.28125 -6.289062 7.46875 -5.570312 7.46875 -4.59375 L 7.46875 -0.71875 L 8.59375 -0.71875 L 8.59375 0 L 5.125 0 L 5.125 -0.71875 L 6.21875 -0.71875 L 6.21875 -4.203125 C 6.21875 -5.085938 6.109375 -5.691406 5.890625 -6.015625 C 5.671875 -6.347656 5.285156 -6.515625 4.734375 -6.515625 C 4.148438 -6.515625 3.707031 -6.300781 3.40625 -5.875 C 3.101562 -5.457031 2.953125 -4.84375 2.953125 -4.03125 L 2.953125 -0.71875 L 4.046875 -0.71875 L 4.046875 0 Z M 0.578125 0 "/></g></g><g style="fill:#ffffff;fill-opacity:1;"><g transform="translate(597.36464, 42.125495)"><path style="stroke:none" d=""/></g></g><g style="fill:#ffffff;fill-opacity:1;"><g transform="translate(601.792683, 42.125495)"><path style="stroke:none" d="M 4.0625 -4.421875 L 5.578125 -6.5 L 4.59375 -6.5 L 4.59375 -7.234375 L 7.390625 -7.234375 L 7.390625 -6.5 L 6.421875 -6.5 L 4.484375 -3.828125 L 6.75 -0.71875 L 7.6875 -0.71875 L 7.6875 0 L 4.34375 0 L 4.34375 -0.71875 L 5.265625 -0.71875 L 3.703125 -2.890625 L 2.109375 -0.71875 L 3.0625 -0.71875 L 3.0625 0 L 0.3125 0 L 0.3125 -0.71875 L 1.265625 -0.71875 L 3.265625 -3.46875 L 1.0625 -6.5 L 0.171875 -6.5 L 0.171875 -7.234375 L 3.40625 -7.234375 L 3.40625 -6.5 L 2.53125 -6.5 Z M 4.0625 -4.421875 "/></g></g><g style="fill:#ffffff;fill-opacity:1;"><g transform="translate(609.64888, 42.125495)"><path style="stroke:none" d="M 5.546875 -2.265625 L 5.546875 -3.796875 L 3.9375 -3.796875 C 3.3125 -3.796875 2.847656 -3.660156 2.546875 -3.390625 C 2.242188 -3.128906 2.09375 -2.722656 2.09375 -2.171875 C 2.09375 -1.671875 2.242188 -1.269531 2.546875 -0.96875 C 2.859375 -0.675781 3.273438 -0.53125 3.796875 -0.53125 C 4.328125 -0.53125 4.75 -0.691406 5.0625 -1.015625 C 5.382812 -1.335938 5.546875 -1.753906 5.546875 -2.265625 Z M 6.796875 -4.515625 L 6.796875 -0.71875 L 7.921875 -0.71875 L 7.921875 0 L 5.546875 0 L 5.546875 -0.78125 C 5.265625 -0.445312 4.941406 -0.195312 4.578125 -0.03125 C 4.222656 0.125 3.800781 0.203125 3.3125 0.203125 C 2.507812 0.203125 1.867188 -0.0078125 1.390625 -0.4375 C 0.921875 -0.863281 0.6875 -1.441406 0.6875 -2.171875 C 0.6875 -2.921875 0.957031 -3.5 1.5 -3.90625 C 2.039062 -4.320312 2.804688 -4.53125 3.796875 -4.53125 L 5.546875 -4.53125 L 5.546875 -5.03125 C 5.546875 -5.582031 5.378906 -6.003906 5.046875 -6.296875 C 4.710938 -6.597656 4.242188 -6.75 3.640625 -6.75 C 3.140625 -6.75 2.738281 -6.632812 2.4375 -6.40625 C 2.144531 -6.1875 1.96875 -5.851562 1.90625 -5.40625 L 1.25 -5.40625 L 1.25 -6.875 C 1.6875 -7.0625 2.109375 -7.203125 2.515625 -7.296875 C 2.929688 -7.390625 3.332031 -7.4375 3.71875 -7.4375 C 4.726562 -7.4375 5.492188 -7.1875 6.015625 -6.6875 C 6.535156 -6.1875 6.796875 -5.460938 6.796875 -4.515625 Z M 6.796875 -4.515625 "/></g></g><g style="fill:#ffffff;fill-opacity:1;"><g transform="translate(617.953978, 42.125495)"><path style="stroke:none" d="M 0.984375 -7.265625 C 1.335938 -7.546875 1.59375 -7.878906 1.75 -8.265625 C 1.914062 -8.660156 2 -9.15625 2 -9.75 L 2 -10.15625 L 3.3125 -10.15625 C 3.3125 -9.375 3.164062 -8.707031 2.875 -8.15625 C 2.59375 -7.613281 2.140625 -7.132812 1.515625 -6.71875 Z M 3.703125 -7.265625 C 4.046875 -7.546875 4.296875 -7.878906 4.453125 -8.265625 C 4.609375 -8.660156 4.6875 -9.148438 4.6875 -9.734375 L 4.6875 -10.15625 L 6 -10.15625 C 6 -9.363281 5.851562 -8.695312 5.5625 -8.15625 C 5.28125 -7.613281 4.832031 -7.132812 4.21875 -6.71875 Z M 3.703125 -7.265625 "/></g></g><g style="fill:#ffffff;fill-opacity:1;"><g transform="translate(268.019734, 61.53921)"><path style="stroke:none" d="M 6.421875 -9.796875 C 6.078125 -9.503906 5.828125 -9.164062 5.671875 -8.78125 C 5.515625 -8.394531 5.4375 -7.910156 5.4375 -7.328125 L 5.4375 -6.90625 L 4.109375 -6.90625 C 4.117188 -7.695312 4.265625 -8.363281 4.546875 -8.90625 C 4.828125 -9.445312 5.273438 -9.925781 5.890625 -10.34375 Z M 3.734375 -9.796875 C 3.390625 -9.503906 3.140625 -9.164062 2.984375 -8.78125 C 2.828125 -8.394531 2.75 -7.910156 2.75 -7.328125 L 2.75 -6.90625 L 1.421875 -6.90625 C 1.421875 -7.6875 1.5625 -8.347656 1.84375 -8.890625 C 2.132812 -9.441406 2.585938 -9.925781 3.203125 -10.34375 Z M 3.734375 -9.796875 "/></g></g><g style="fill:#ffffff;fill-opacity:1;"><g transform="translate(275.141315, 61.53921)"><path style="stroke:none" d="M 3.4375 -5.171875 L 5.234375 -5.171875 C 5.910156 -5.171875 6.425781 -5.351562 6.78125 -5.71875 C 7.132812 -6.082031 7.3125 -6.609375 7.3125 -7.296875 C 7.3125 -7.992188 7.132812 -8.523438 6.78125 -8.890625 C 6.425781 -9.253906 5.910156 -9.4375 5.234375 -9.4375 L 3.4375 -9.4375 Z M 0.765625 0 L 0.765625 -0.71875 L 2.0625 -0.71875 L 2.0625 -9.4375 L 0.765625 -9.4375 L 0.765625 -10.15625 L 5.578125 -10.15625 C 6.585938 -10.15625 7.390625 -9.894531 7.984375 -9.375 C 8.578125 -8.863281 8.875 -8.171875 8.875 -7.296875 C 8.875 -6.429688 8.578125 -5.738281 7.984375 -5.21875 C 7.390625 -4.695312 6.585938 -4.4375 5.578125 -4.4375 L 3.4375 -4.4375 L 3.4375 -0.71875 L 5.015625 -0.71875 L 5.015625 0 Z M 0.765625 0 "/></g></g><g style="fill:#ffffff;fill-opacity:1;"><g transform="translate(284.514321, 61.53921)"><path style="stroke:none" d="M 4.9375 -7.234375 L 7.28125 -7.234375 L 7.28125 -0.71875 L 8.453125 -0.71875 L 8.453125 0 L 6.015625 0 L 6.015625 -1.28125 C 5.785156 -0.800781 5.488281 -0.429688 5.125 -0.171875 C 4.757812 0.078125 4.332031 0.203125 3.84375 0.203125 C 3.039062 0.203125 2.445312 -0.0234375 2.0625 -0.484375 C 1.6875 -0.941406 1.5 -1.660156 1.5 -2.640625 L 1.5 -6.5 L 0.375 -6.5 L 0.375 -7.234375 L 2.765625 -7.234375 L 2.765625 -3.015625 C 2.765625 -2.140625 2.867188 -1.535156 3.078125 -1.203125 C 3.296875 -0.878906 3.679688 -0.71875 4.234375 -0.71875 C 4.816406 -0.71875 5.257812 -0.929688 5.5625 -1.359375 C 5.863281 -1.785156 6.015625 -2.40625 6.015625 -3.21875 L 6.015625 -6.5 L 4.9375 -6.5 Z M 4.9375 -7.234375 "/></g></g><g style="fill:#ffffff;fill-opacity:1;"><g transform="translate(293.486016, 61.53921)"><path style="stroke:none" d="M 0.78125 -0.40625 L 0.78125 -2.09375 L 1.5 -2.09375 C 1.519531 -1.550781 1.6875 -1.144531 2 -0.875 C 2.320312 -0.601562 2.800781 -0.46875 3.4375 -0.46875 C 4 -0.46875 4.425781 -0.570312 4.71875 -0.78125 C 5.007812 -1 5.15625 -1.3125 5.15625 -1.71875 C 5.15625 -2.03125 5.046875 -2.285156 4.828125 -2.484375 C 4.617188 -2.679688 4.164062 -2.890625 3.46875 -3.109375 L 2.5625 -3.421875 C 1.945312 -3.617188 1.5 -3.863281 1.21875 -4.15625 C 0.9375 -4.457031 0.796875 -4.84375 0.796875 -5.3125 C 0.796875 -5.96875 1.035156 -6.484375 1.515625 -6.859375 C 2.003906 -7.242188 2.675781 -7.4375 3.53125 -7.4375 C 3.914062 -7.4375 4.316406 -7.382812 4.734375 -7.28125 C 5.160156 -7.175781 5.597656 -7.03125 6.046875 -6.84375 L 6.046875 -5.265625 L 5.328125 -5.265625 C 5.304688 -5.734375 5.140625 -6.097656 4.828125 -6.359375 C 4.523438 -6.617188 4.109375 -6.75 3.578125 -6.75 C 3.054688 -6.75 2.660156 -6.65625 2.390625 -6.46875 C 2.117188 -6.289062 1.984375 -6.015625 1.984375 -5.640625 C 1.984375 -5.335938 2.082031 -5.09375 2.28125 -4.90625 C 2.488281 -4.726562 2.898438 -4.539062 3.515625 -4.34375 L 4.5 -4.046875 C 5.1875 -3.828125 5.679688 -3.554688 5.984375 -3.234375 C 6.285156 -2.921875 6.4375 -2.507812 6.4375 -2 C 6.4375 -1.320312 6.171875 -0.785156 5.640625 -0.390625 C 5.117188 0.00390625 4.398438 0.203125 3.484375 0.203125 C 3.015625 0.203125 2.554688 0.148438 2.109375 0.046875 C 1.671875 -0.0546875 1.226562 -0.207031 0.78125 -0.40625 Z M 0.78125 -0.40625 "/></g></g><g style="fill:#ffffff;fill-opacity:1;"><g transform="translate(300.634805, 61.53921)"><path style="stroke:none" d="M 0.578125 0 L 0.578125 -0.71875 L 1.703125 -0.71875 L 1.703125 -9.875 L 0.5 -9.875 L 0.5 -10.59375 L 2.953125 -10.59375 L 2.953125 -5.953125 C 3.179688 -6.441406 3.476562 -6.8125 3.84375 -7.0625 C 4.21875 -7.3125 4.648438 -7.4375 5.140625 -7.4375 C 5.941406 -7.4375 6.53125 -7.207031 6.90625 -6.75 C 7.28125 -6.289062 7.46875 -5.570312 7.46875 -4.59375 L 7.46875 -0.71875 L 8.59375 -0.71875 L 8.59375 0 L 5.125 0 L 5.125 -0.71875 L 6.21875 -0.71875 L 6.21875 -4.203125 C 6.21875 -5.085938 6.109375 -5.691406 5.890625 -6.015625 C 5.671875 -6.335938 5.285156 -6.5 4.734375 -6.5 C 4.148438 -6.5 3.707031 -6.285156 3.40625 -5.859375 C 3.101562 -5.441406 2.953125 -4.832031 2.953125 -4.03125 L 2.953125 -0.71875 L 4.046875 -0.71875 L 4.046875 0 Z M 0.578125 0 "/></g></g><g style="fill:#ffffff;fill-opacity:1;"><g transform="translate(309.6065, 61.53921)"><path style="stroke:none" d=""/></g></g><g style="fill:#ffffff;fill-opacity:1;"><g transform="translate(314.034531, 61.53921)"><path style="stroke:none" d="M 5.546875 -2.265625 L 5.546875 -3.796875 L 3.9375 -3.796875 C 3.3125 -3.796875 2.847656 -3.660156 2.546875 -3.390625 C 2.242188 -3.128906 2.09375 -2.722656 2.09375 -2.171875 C 2.09375 -1.671875 2.242188 -1.269531 2.546875 -0.96875 C 2.859375 -0.675781 3.273438 -0.53125 3.796875 -0.53125 C 4.328125 -0.53125 4.75 -0.691406 5.0625 -1.015625 C 5.382812 -1.335938 5.546875 -1.753906 5.546875 -2.265625 Z M 6.796875 -4.515625 L 6.796875 -0.71875 L 7.921875 -0.71875 L 7.921875 0 L 5.546875 0 L 5.546875 -0.78125 C 5.265625 -0.445312 4.941406 -0.195312 4.578125 -0.03125 C 4.222656 0.125 3.800781 0.203125 3.3125 0.203125 C 2.507812 0.203125 1.867188 -0.0078125 1.390625 -0.4375 C 0.921875 -0.863281 0.6875 -1.441406 0.6875 -2.171875 C 0.6875 -2.921875 0.957031 -3.5 1.5 -3.90625 C 2.039062 -4.320312 2.804688 -4.53125 3.796875 -4.53125 L 5.546875 -4.53125 L 5.546875 -5.03125 C 5.546875 -5.582031 5.378906 -6.003906 5.046875 -6.296875 C 4.710938 -6.597656 4.242188 -6.75 3.640625 -6.75 C 3.140625 -6.75 2.738281 -6.632812 2.4375 -6.40625 C 2.144531 -6.1875 1.96875 -5.851562 1.90625 -5.40625 L 1.25 -5.40625 L 1.25 -6.875 C 1.6875 -7.0625 2.109375 -7.203125 2.515625 -7.296875 C 2.929688 -7.390625 3.332031 -7.4375 3.71875 -7.4375 C 4.726562 -7.4375 5.492188 -7.1875 6.015625 -6.6875 C 6.535156 -6.1875 6.796875 -5.460938 6.796875 -4.515625 Z M 6.796875 -4.515625 "/></g></g><g style="fill:#ffffff;fill-opacity:1;"><g transform="translate(322.339641, 61.53921)"><path style="stroke:none" d=""/></g></g><g style="fill:#ffffff;fill-opacity:1;"><g transform="translate(326.767672, 61.53921)"><path style="stroke:none" d="M 2.859375 -0.71875 L 4.046875 -0.71875 L 4.046875 0 L 0.40625 0 L 0.40625 -0.71875 L 1.609375 -0.71875 L 1.609375 -9.875 L 0.40625 -9.875 L 0.40625 -10.59375 L 2.859375 -10.59375 Z M 2.859375 -0.71875 "/></g></g><g style="fill:#ffffff;fill-opacity:1;"><g transform="translate(331.222911, 61.53921)"><path style="stroke:none" d="M 1.359375 -9.484375 C 1.359375 -9.691406 1.429688 -9.867188 1.578125 -10.015625 C 1.734375 -10.171875 1.914062 -10.25 2.125 -10.25 C 2.332031 -10.25 2.515625 -10.171875 2.671875 -10.015625 C 2.828125 -9.867188 2.90625 -9.691406 2.90625 -9.484375 C 2.90625 -9.265625 2.828125 -9.082031 2.671875 -8.9375 C 2.523438 -8.789062 2.34375 -8.71875 2.125 -8.71875 C 1.914062 -8.71875 1.734375 -8.789062 1.578125 -8.9375 C 1.429688 -9.082031 1.359375 -9.265625 1.359375 -9.484375 Z M 2.953125 -0.71875 L 4.140625 -0.71875 L 4.140625 0 L 0.5 0 L 0.5 -0.71875 L 1.703125 -0.71875 L 1.703125 -6.5 L 0.5 -6.5 L 0.5 -7.234375 L 2.953125 -7.234375 Z M 2.953125 -0.71875 "/></g></g><g style="fill:#ffffff;fill-opacity:1;"><g transform="translate(335.678151, 61.53921)"><path style="stroke:none" d="M 1.5 -6.5 L 0.40625 -6.5 L 0.40625 -7.234375 L 1.5 -7.234375 L 1.5 -9.484375 L 2.765625 -9.484375 L 2.765625 -7.234375 L 5.125 -7.234375 L 5.125 -6.5 L 2.765625 -6.5 L 2.765625 -1.90625 C 2.765625 -1.300781 2.820312 -0.910156 2.9375 -0.734375 C 3.050781 -0.554688 3.269531 -0.46875 3.59375 -0.46875 C 3.914062 -0.46875 4.148438 -0.566406 4.296875 -0.765625 C 4.453125 -0.960938 4.535156 -1.273438 4.546875 -1.703125 L 5.484375 -1.703125 C 5.453125 -1.046875 5.273438 -0.5625 4.953125 -0.25 C 4.628906 0.0507812 4.140625 0.203125 3.484375 0.203125 C 2.765625 0.203125 2.253906 0.0390625 1.953125 -0.28125 C 1.648438 -0.601562 1.5 -1.144531 1.5 -1.90625 Z M 1.5 -6.5 "/></g></g><g style="fill:#ffffff;fill-opacity:1;"><g transform="translate(341.276107, 61.53921)"><path style="stroke:none" d="M 1.5 -6.5 L 0.40625 -6.5 L 0.40625 -7.234375 L 1.5 -7.234375 L 1.5 -9.484375 L 2.765625 -9.484375 L 2.765625 -7.234375 L 5.125 -7.234375 L 5.125 -6.5 L 2.765625 -6.5 L 2.765625 -1.90625 C 2.765625 -1.300781 2.820312 -0.910156 2.9375 -0.734375 C 3.050781 -0.554688 3.269531 -0.46875 3.59375 -0.46875 C 3.914062 -0.46875 4.148438 -0.566406 4.296875 -0.765625 C 4.453125 -0.960938 4.535156 -1.273438 4.546875 -1.703125 L 5.484375 -1.703125 C 5.453125 -1.046875 5.273438 -0.5625 4.953125 -0.25 C 4.628906 0.0507812 4.140625 0.203125 3.484375 0.203125 C 2.765625 0.203125 2.253906 0.0390625 1.953125 -0.28125 C 1.648438 -0.601562 1.5 -1.144531 1.5 -1.90625 Z M 1.5 -6.5 "/></g></g><g style="fill:#ffffff;fill-opacity:1;"><g transform="translate(346.874064, 61.53921)"><path style="stroke:none" d="M 2.859375 -0.71875 L 4.046875 -0.71875 L 4.046875 0 L 0.40625 0 L 0.40625 -0.71875 L 1.609375 -0.71875 L 1.609375 -9.875 L 0.40625 -9.875 L 0.40625 -10.59375 L 2.859375 -10.59375 Z M 2.859375 -0.71875 "/></g></g><g style="fill:#ffffff;fill-opacity:1;"><g transform="translate(351.329303, 61.53921)"><path style="stroke:none" d="M 7.546875 -3.484375 L 2.15625 -3.484375 L 2.15625 -3.4375 C 2.15625 -2.457031 2.335938 -1.71875 2.703125 -1.21875 C 3.078125 -0.71875 3.617188 -0.46875 4.328125 -0.46875 C 4.878906 -0.46875 5.332031 -0.613281 5.6875 -0.90625 C 6.039062 -1.195312 6.285156 -1.625 6.421875 -2.1875 L 7.4375 -2.1875 C 7.226562 -1.394531 6.851562 -0.796875 6.3125 -0.390625 C 5.78125 0.00390625 5.078125 0.203125 4.203125 0.203125 C 3.148438 0.203125 2.300781 -0.144531 1.65625 -0.84375 C 1.007812 -1.539062 0.6875 -2.46875 0.6875 -3.625 C 0.6875 -4.757812 1.003906 -5.675781 1.640625 -6.375 C 2.273438 -7.082031 3.101562 -7.4375 4.125 -7.4375 C 5.21875 -7.4375 6.054688 -7.097656 6.640625 -6.421875 C 7.222656 -5.742188 7.523438 -4.765625 7.546875 -3.484375 Z M 6.078125 -4.203125 C 6.046875 -5.046875 5.863281 -5.679688 5.53125 -6.109375 C 5.207031 -6.535156 4.738281 -6.75 4.125 -6.75 C 3.550781 -6.75 3.097656 -6.535156 2.765625 -6.109375 C 2.429688 -5.679688 2.226562 -5.046875 2.15625 -4.203125 Z M 6.078125 -4.203125 "/></g></g><g style="fill:#ffffff;fill-opacity:1;"><g transform="translate(359.573196, 61.53921)"><path style="stroke:none" d=""/></g></g><g style="fill:#ffffff;fill-opacity:1;"><g transform="translate(364.001228, 61.53921)"><path style="stroke:none" d="M 7.21875 -5.828125 C 7.457031 -6.359375 7.765625 -6.757812 8.140625 -7.03125 C 8.515625 -7.300781 8.953125 -7.4375 9.453125 -7.4375 C 10.210938 -7.4375 10.773438 -7.195312 11.140625 -6.71875 C 11.515625 -6.25 11.703125 -5.539062 11.703125 -4.59375 L 11.703125 -0.71875 L 12.828125 -0.71875 L 12.828125 0 L 9.359375 0 L 9.359375 -0.71875 L 10.453125 -0.71875 L 10.453125 -4.453125 C 10.453125 -5.191406 10.34375 -5.71875 10.125 -6.03125 C 9.90625 -6.34375 9.546875 -6.5 9.046875 -6.5 C 8.484375 -6.5 8.054688 -6.285156 7.765625 -5.859375 C 7.472656 -5.441406 7.328125 -4.832031 7.328125 -4.03125 L 7.328125 -0.71875 L 8.421875 -0.71875 L 8.421875 0 L 4.984375 0 L 4.984375 -0.71875 L 6.078125 -0.71875 L 6.078125 -4.5 C 6.078125 -5.226562 5.96875 -5.742188 5.75 -6.046875 C 5.53125 -6.347656 5.171875 -6.5 4.671875 -6.5 C 4.109375 -6.5 3.679688 -6.285156 3.390625 -5.859375 C 3.097656 -5.441406 2.953125 -4.832031 2.953125 -4.03125 L 2.953125 -0.71875 L 4.046875 -0.71875 L 4.046875 0 L 0.578125 0 L 0.578125 -0.71875 L 1.703125 -0.71875 L 1.703125 -6.515625 L 0.5 -6.515625 L 0.5 -7.234375 L 2.953125 -7.234375 L 2.953125 -5.953125 C 3.179688 -6.429688 3.472656 -6.796875 3.828125 -7.046875 C 4.191406 -7.304688 4.601562 -7.4375 5.0625 -7.4375 C 5.625 -7.4375 6.09375 -7.296875 6.46875 -7.015625 C 6.84375 -6.734375 7.09375 -6.335938 7.21875 -5.828125 Z M 7.21875 -5.828125 "/></g></g><g style="fill:#ffffff;fill-opacity:1;"><g transform="translate(377.210501, 61.53921)"><path style="stroke:none" d="M 4.1875 -0.46875 C 4.863281 -0.46875 5.375 -0.734375 5.71875 -1.265625 C 6.0625 -1.796875 6.234375 -2.582031 6.234375 -3.625 C 6.234375 -4.65625 6.0625 -5.429688 5.71875 -5.953125 C 5.375 -6.484375 4.863281 -6.75 4.1875 -6.75 C 3.519531 -6.75 3.015625 -6.484375 2.671875 -5.953125 C 2.328125 -5.429688 2.15625 -4.65625 2.15625 -3.625 C 2.15625 -2.582031 2.328125 -1.796875 2.671875 -1.265625 C 3.015625 -0.734375 3.519531 -0.46875 4.1875 -0.46875 Z M 4.1875 0.203125 C 3.132812 0.203125 2.285156 -0.144531 1.640625 -0.84375 C 1.003906 -1.539062 0.6875 -2.46875 0.6875 -3.625 C 0.6875 -4.769531 1.003906 -5.691406 1.640625 -6.390625 C 2.285156 -7.085938 3.132812 -7.4375 4.1875 -7.4375 C 5.25 -7.4375 6.097656 -7.085938 6.734375 -6.390625 C 7.367188 -5.691406 7.6875 -4.769531 7.6875 -3.625 C 7.6875 -2.46875 7.367188 -1.539062 6.734375 -0.84375 C 6.097656 -0.144531 5.25 0.203125 4.1875 0.203125 Z M 4.1875 0.203125 "/></g></g><g style="fill:#ffffff;fill-opacity:1;"><g transform="translate(385.597233, 61.53921)"><path style="stroke:none" d="M 6.65625 -7.25 L 6.65625 -5.4375 L 5.9375 -5.4375 C 5.914062 -5.789062 5.816406 -6.054688 5.640625 -6.234375 C 5.460938 -6.410156 5.203125 -6.5 4.859375 -6.5 C 4.242188 -6.5 3.769531 -6.285156 3.4375 -5.859375 C 3.113281 -5.441406 2.953125 -4.832031 2.953125 -4.03125 L 2.953125 -0.71875 L 4.40625 -0.71875 L 4.40625 0 L 0.578125 0 L 0.578125 -0.71875 L 1.703125 -0.71875 L 1.703125 -6.515625 L 0.5 -6.515625 L 0.5 -7.234375 L 2.953125 -7.234375 L 2.953125 -5.953125 C 3.203125 -6.453125 3.519531 -6.820312 3.90625 -7.0625 C 4.289062 -7.3125 4.757812 -7.4375 5.3125 -7.4375 C 5.507812 -7.4375 5.71875 -7.421875 5.9375 -7.390625 C 6.164062 -7.359375 6.40625 -7.3125 6.65625 -7.25 Z M 6.65625 -7.25 "/></g></g><g style="fill:#ffffff;fill-opacity:1;"><g transform="translate(392.256285, 61.53921)"><path style="stroke:none" d="M 7.546875 -3.484375 L 2.15625 -3.484375 L 2.15625 -3.4375 C 2.15625 -2.457031 2.335938 -1.71875 2.703125 -1.21875 C 3.078125 -0.71875 3.617188 -0.46875 4.328125 -0.46875 C 4.878906 -0.46875 5.332031 -0.613281 5.6875 -0.90625 C 6.039062 -1.195312 6.285156 -1.625 6.421875 -2.1875 L 7.4375 -2.1875 C 7.226562 -1.394531 6.851562 -0.796875 6.3125 -0.390625 C 5.78125 0.00390625 5.078125 0.203125 4.203125 0.203125 C 3.148438 0.203125 2.300781 -0.144531 1.65625 -0.84375 C 1.007812 -1.539062 0.6875 -2.46875 0.6875 -3.625 C 0.6875 -4.757812 1.003906 -5.675781 1.640625 -6.375 C 2.273438 -7.082031 3.101562 -7.4375 4.125 -7.4375 C 5.21875 -7.4375 6.054688 -7.097656 6.640625 -6.421875 C 7.222656 -5.742188 7.523438 -4.765625 7.546875 -3.484375 Z M 6.078125 -4.203125 C 6.046875 -5.046875 5.863281 -5.679688 5.53125 -6.109375 C 5.207031 -6.535156 4.738281 -6.75 4.125 -6.75 C 3.550781 -6.75 3.097656 -6.535156 2.765625 -6.109375 C 2.429688 -5.679688 2.226562 -5.046875 2.15625 -4.203125 Z M 6.078125 -4.203125 "/></g></g><g style="fill:#ffffff;fill-opacity:1;"><g transform="translate(400.500178, 61.53921)"><path style="stroke:none" d=""/></g></g><g style="fill:#ffffff;fill-opacity:1;"><g transform="translate(404.92821, 61.53921)"><path style="stroke:none" d="M 0.609375 -4.15625 L 6.359375 -4.15625 L 6.359375 -3.25 L 0.609375 -3.25 Z M 0.609375 -4.15625 "/></g></g><g style="fill:#ffffff;fill-opacity:1;"><g transform="translate(411.893347, 61.53921)"><path style="stroke:none" d=""/></g></g><g style="fill:#ffffff;fill-opacity:1;"><g transform="translate(416.321378, 61.53921)"><path style="stroke:none" d="M 3.015625 1.328125 L 3.484375 0.125 L 0.78125 -6.5 L -0.046875 -6.5 L -0.046875 -7.234375 L 3.28125 -7.234375 L 3.28125 -6.5 L 2.125 -6.5 L 4.171875 -1.53125 L 6.203125 -6.5 L 5.125 -6.5 L 5.125 -7.234375 L 7.828125 -7.234375 L 7.828125 -6.5 L 7.015625 -6.5 L 3.703125 1.640625 C 3.484375 2.203125 3.234375 2.582031 2.953125 2.78125 C 2.671875 2.988281 2.28125 3.09375 1.78125 3.09375 C 1.570312 3.09375 1.351562 3.070312 1.125 3.03125 C 0.90625 3 0.679688 2.953125 0.453125 2.890625 L 0.453125 1.5 L 1.09375 1.5 C 1.113281 1.8125 1.1875 2.035156 1.3125 2.171875 C 1.445312 2.304688 1.648438 2.375 1.921875 2.375 C 2.171875 2.375 2.367188 2.300781 2.515625 2.15625 C 2.671875 2.019531 2.835938 1.742188 3.015625 1.328125 Z M 3.015625 1.328125 "/></g></g><g style="fill:#ffffff;fill-opacity:1;"><g transform="translate(424.191167, 61.53921)"><path style="stroke:none" d="M 4.1875 -0.46875 C 4.863281 -0.46875 5.375 -0.734375 5.71875 -1.265625 C 6.0625 -1.796875 6.234375 -2.582031 6.234375 -3.625 C 6.234375 -4.65625 6.0625 -5.429688 5.71875 -5.953125 C 5.375 -6.484375 4.863281 -6.75 4.1875 -6.75 C 3.519531 -6.75 3.015625 -6.484375 2.671875 -5.953125 C 2.328125 -5.429688 2.15625 -4.65625 2.15625 -3.625 C 2.15625 -2.582031 2.328125 -1.796875 2.671875 -1.265625 C 3.015625 -0.734375 3.519531 -0.46875 4.1875 -0.46875 Z M 4.1875 0.203125 C 3.132812 0.203125 2.285156 -0.144531 1.640625 -0.84375 C 1.003906 -1.539062 0.6875 -2.46875 0.6875 -3.625 C 0.6875 -4.769531 1.003906 -5.691406 1.640625 -6.390625 C 2.285156 -7.085938 3.132812 -7.4375 4.1875 -7.4375 C 5.25 -7.4375 6.097656 -7.085938 6.734375 -6.390625 C 7.367188 -5.691406 7.6875 -4.769531 7.6875 -3.625 C 7.6875 -2.46875 7.367188 -1.539062 6.734375 -0.84375 C 6.097656 -0.144531 5.25 0.203125 4.1875 0.203125 Z M 4.1875 0.203125 "/></g></g><g style="fill:#ffffff;fill-opacity:1;"><g transform="translate(432.577899, 61.53921)"><path style="stroke:none" d="M 4.9375 -7.234375 L 7.28125 -7.234375 L 7.28125 -0.71875 L 8.453125 -0.71875 L 8.453125 0 L 6.015625 0 L 6.015625 -1.28125 C 5.785156 -0.800781 5.488281 -0.429688 5.125 -0.171875 C 4.757812 0.078125 4.332031 0.203125 3.84375 0.203125 C 3.039062 0.203125 2.445312 -0.0234375 2.0625 -0.484375 C 1.6875 -0.941406 1.5 -1.660156 1.5 -2.640625 L 1.5 -6.5 L 0.375 -6.5 L 0.375 -7.234375 L 2.765625 -7.234375 L 2.765625 -3.015625 C 2.765625 -2.140625 2.867188 -1.535156 3.078125 -1.203125 C 3.296875 -0.878906 3.679688 -0.71875 4.234375 -0.71875 C 4.816406 -0.71875 5.257812 -0.929688 5.5625 -1.359375 C 5.863281 -1.785156 6.015625 -2.40625 6.015625 -3.21875 L 6.015625 -6.5 L 4.9375 -6.5 Z M 4.9375 -7.234375 "/></g></g><g style="fill:#ffffff;fill-opacity:1;"><g transform="translate(441.549594, 61.53921)"><path style="stroke:none" d="M 6.65625 -7.25 L 6.65625 -5.4375 L 5.9375 -5.4375 C 5.914062 -5.789062 5.816406 -6.054688 5.640625 -6.234375 C 5.460938 -6.410156 5.203125 -6.5 4.859375 -6.5 C 4.242188 -6.5 3.769531 -6.285156 3.4375 -5.859375 C 3.113281 -5.441406 2.953125 -4.832031 2.953125 -4.03125 L 2.953125 -0.71875 L 4.40625 -0.71875 L 4.40625 0 L 0.578125 0 L 0.578125 -0.71875 L 1.703125 -0.71875 L 1.703125 -6.515625 L 0.5 -6.515625 L 0.5 -7.234375 L 2.953125 -7.234375 L 2.953125 -5.953125 C 3.203125 -6.453125 3.519531 -6.820312 3.90625 -7.0625 C 4.289062 -7.3125 4.757812 -7.4375 5.3125 -7.4375 C 5.507812 -7.4375 5.71875 -7.421875 5.9375 -7.390625 C 6.164062 -7.359375 6.40625 -7.3125 6.65625 -7.25 Z M 6.65625 -7.25 "/></g></g><g style="fill:#ffffff;fill-opacity:1;"><g transform="translate(448.208646, 61.53921)"><path style="stroke:none" d=""/></g></g><g style="fill:#ffffff;fill-opacity:1;"><g transform="translate(452.636678, 61.53921)"><path style="stroke:none" d="M 2.859375 -0.71875 L 4.046875 -0.71875 L 4.046875 0 L 0.40625 0 L 0.40625 -0.71875 L 1.609375 -0.71875 L 1.609375 -9.875 L 0.40625 -9.875 L 0.40625 -10.59375 L 2.859375 -10.59375 Z M 2.859375 -0.71875 "/></g></g><g style="fill:#ffffff;fill-opacity:1;"><g transform="translate(457.091917, 61.53921)"><path style="stroke:none" d="M 1.359375 -9.484375 C 1.359375 -9.691406 1.429688 -9.867188 1.578125 -10.015625 C 1.734375 -10.171875 1.914062 -10.25 2.125 -10.25 C 2.332031 -10.25 2.515625 -10.171875 2.671875 -10.015625 C 2.828125 -9.867188 2.90625 -9.691406 2.90625 -9.484375 C 2.90625 -9.265625 2.828125 -9.082031 2.671875 -8.9375 C 2.523438 -8.789062 2.34375 -8.71875 2.125 -8.71875 C 1.914062 -8.71875 1.734375 -8.789062 1.578125 -8.9375 C 1.429688 -9.082031 1.359375 -9.265625 1.359375 -9.484375 Z M 2.953125 -0.71875 L 4.140625 -0.71875 L 4.140625 0 L 0.5 0 L 0.5 -0.71875 L 1.703125 -0.71875 L 1.703125 -6.5 L 0.5 -6.5 L 0.5 -7.234375 L 2.953125 -7.234375 Z M 2.953125 -0.71875 "/></g></g><g style="fill:#ffffff;fill-opacity:1;"><g transform="translate(461.547156, 61.53921)"><path style="stroke:none" d="M 7.21875 -5.828125 C 7.457031 -6.359375 7.765625 -6.757812 8.140625 -7.03125 C 8.515625 -7.300781 8.953125 -7.4375 9.453125 -7.4375 C 10.210938 -7.4375 10.773438 -7.195312 11.140625 -6.71875 C 11.515625 -6.25 11.703125 -5.539062 11.703125 -4.59375 L 11.703125 -0.71875 L 12.828125 -0.71875 L 12.828125 0 L 9.359375 0 L 9.359375 -0.71875 L 10.453125 -0.71875 L 10.453125 -4.453125 C 10.453125 -5.191406 10.34375 -5.71875 10.125 -6.03125 C 9.90625 -6.34375 9.546875 -6.5 9.046875 -6.5 C 8.484375 -6.5 8.054688 -6.285156 7.765625 -5.859375 C 7.472656 -5.441406 7.328125 -4.832031 7.328125 -4.03125 L 7.328125 -0.71875 L 8.421875 -0.71875 L 8.421875 0 L 4.984375 0 L 4.984375 -0.71875 L 6.078125 -0.71875 L 6.078125 -4.5 C 6.078125 -5.226562 5.96875 -5.742188 5.75 -6.046875 C 5.53125 -6.347656 5.171875 -6.5 4.671875 -6.5 C 4.109375 -6.5 3.679688 -6.285156 3.390625 -5.859375 C 3.097656 -5.441406 2.953125 -4.832031 2.953125 -4.03125 L 2.953125 -0.71875 L 4.046875 -0.71875 L 4.046875 0 L 0.578125 0 L 0.578125 -0.71875 L 1.703125 -0.71875 L 1.703125 -6.515625 L 0.5 -6.515625 L 0.5 -7.234375 L 2.953125 -7.234375 L 2.953125 -5.953125 C 3.179688 -6.429688 3.472656 -6.796875 3.828125 -7.046875 C 4.191406 -7.304688 4.601562 -7.4375 5.0625 -7.4375 C 5.625 -7.4375 6.09375 -7.296875 6.46875 -7.015625 C 6.84375 -6.734375 7.09375 -6.335938 7.21875 -5.828125 Z M 7.21875 -5.828125 "/></g></g><g style="fill:#ffffff;fill-opacity:1;"><g transform="translate(474.756429, 61.53921)"><path style="stroke:none" d="M 1.359375 -9.484375 C 1.359375 -9.691406 1.429688 -9.867188 1.578125 -10.015625 C 1.734375 -10.171875 1.914062 -10.25 2.125 -10.25 C 2.332031 -10.25 2.515625 -10.171875 2.671875 -10.015625 C 2.828125 -9.867188 2.90625 -9.691406 2.90625 -9.484375 C 2.90625 -9.265625 2.828125 -9.082031 2.671875 -8.9375 C 2.523438 -8.789062 2.34375 -8.71875 2.125 -8.71875 C 1.914062 -8.71875 1.734375 -8.789062 1.578125 -8.9375 C 1.429688 -9.082031 1.359375 -9.265625 1.359375 -9.484375 Z M 2.953125 -0.71875 L 4.140625 -0.71875 L 4.140625 0 L 0.5 0 L 0.5 -0.71875 L 1.703125 -0.71875 L 1.703125 -6.5 L 0.5 -6.5 L 0.5 -7.234375 L 2.953125 -7.234375 Z M 2.953125 -0.71875 "/></g></g><g style="fill:#ffffff;fill-opacity:1;"><g transform="translate(479.211657, 61.53921)"><path style="stroke:none" d="M 1.5 -6.5 L 0.40625 -6.5 L 0.40625 -7.234375 L 1.5 -7.234375 L 1.5 -9.484375 L 2.765625 -9.484375 L 2.765625 -7.234375 L 5.125 -7.234375 L 5.125 -6.5 L 2.765625 -6.5 L 2.765625 -1.90625 C 2.765625 -1.300781 2.820312 -0.910156 2.9375 -0.734375 C 3.050781 -0.554688 3.269531 -0.46875 3.59375 -0.46875 C 3.914062 -0.46875 4.148438 -0.566406 4.296875 -0.765625 C 4.453125 -0.960938 4.535156 -1.273438 4.546875 -1.703125 L 5.484375 -1.703125 C 5.453125 -1.046875 5.273438 -0.5625 4.953125 -0.25 C 4.628906 0.0507812 4.140625 0.203125 3.484375 0.203125 C 2.765625 0.203125 2.253906 0.0390625 1.953125 -0.28125 C 1.648438 -0.601562 1.5 -1.144531 1.5 -1.90625 Z M 1.5 -6.5 "/></g></g><g style="fill:#ffffff;fill-opacity:1;"><g transform="translate(484.809625, 61.53921)"><path style="stroke:none" d="M 0.78125 -0.40625 L 0.78125 -2.09375 L 1.5 -2.09375 C 1.519531 -1.550781 1.6875 -1.144531 2 -0.875 C 2.320312 -0.601562 2.800781 -0.46875 3.4375 -0.46875 C 4 -0.46875 4.425781 -0.570312 4.71875 -0.78125 C 5.007812 -1 5.15625 -1.3125 5.15625 -1.71875 C 5.15625 -2.03125 5.046875 -2.285156 4.828125 -2.484375 C 4.617188 -2.679688 4.164062 -2.890625 3.46875 -3.109375 L 2.5625 -3.421875 C 1.945312 -3.617188 1.5 -3.863281 1.21875 -4.15625 C 0.9375 -4.457031 0.796875 -4.84375 0.796875 -5.3125 C 0.796875 -5.96875 1.035156 -6.484375 1.515625 -6.859375 C 2.003906 -7.242188 2.675781 -7.4375 3.53125 -7.4375 C 3.914062 -7.4375 4.316406 -7.382812 4.734375 -7.28125 C 5.160156 -7.175781 5.597656 -7.03125 6.046875 -6.84375 L 6.046875 -5.265625 L 5.328125 -5.265625 C 5.304688 -5.734375 5.140625 -6.097656 4.828125 -6.359375 C 4.523438 -6.617188 4.109375 -6.75 3.578125 -6.75 C 3.054688 -6.75 2.660156 -6.65625 2.390625 -6.46875 C 2.117188 -6.289062 1.984375 -6.015625 1.984375 -5.640625 C 1.984375 -5.335938 2.082031 -5.09375 2.28125 -4.90625 C 2.488281 -4.726562 2.898438 -4.539062 3.515625 -4.34375 L 4.5 -4.046875 C 5.1875 -3.828125 5.679688 -3.554688 5.984375 -3.234375 C 6.285156 -2.921875 6.4375 -2.507812 6.4375 -2 C 6.4375 -1.320312 6.171875 -0.785156 5.640625 -0.390625 C 5.117188 0.00390625 4.398438 0.203125 3.484375 0.203125 C 3.015625 0.203125 2.554688 0.148438 2.109375 0.046875 C 1.671875 -0.0546875 1.226562 -0.207031 0.78125 -0.40625 Z M 0.78125 -0.40625 "/></g></g><g style="fill:#ffffff;fill-opacity:1;"><g transform="translate(491.958425, 61.53921)"><path style="stroke:none" d=""/></g></g><g style="fill:#ffffff;fill-opacity:1;"><g transform="translate(496.386445, 61.53921)"><path style="stroke:none" d="M 5.546875 -2.265625 L 5.546875 -3.796875 L 3.9375 -3.796875 C 3.3125 -3.796875 2.847656 -3.660156 2.546875 -3.390625 C 2.242188 -3.128906 2.09375 -2.722656 2.09375 -2.171875 C 2.09375 -1.671875 2.242188 -1.269531 2.546875 -0.96875 C 2.859375 -0.675781 3.273438 -0.53125 3.796875 -0.53125 C 4.328125 -0.53125 4.75 -0.691406 5.0625 -1.015625 C 5.382812 -1.335938 5.546875 -1.753906 5.546875 -2.265625 Z M 6.796875 -4.515625 L 6.796875 -0.71875 L 7.921875 -0.71875 L 7.921875 0 L 5.546875 0 L 5.546875 -0.78125 C 5.265625 -0.445312 4.941406 -0.195312 4.578125 -0.03125 C 4.222656 0.125 3.800781 0.203125 3.3125 0.203125 C 2.507812 0.203125 1.867188 -0.0078125 1.390625 -0.4375 C 0.921875 -0.863281 0.6875 -1.441406 0.6875 -2.171875 C 0.6875 -2.921875 0.957031 -3.5 1.5 -3.90625 C 2.039062 -4.320312 2.804688 -4.53125 3.796875 -4.53125 L 5.546875 -4.53125 L 5.546875 -5.03125 C 5.546875 -5.582031 5.378906 -6.003906 5.046875 -6.296875 C 4.710938 -6.597656 4.242188 -6.75 3.640625 -6.75 C 3.140625 -6.75 2.738281 -6.632812 2.4375 -6.40625 C 2.144531 -6.1875 1.96875 -5.851562 1.90625 -5.40625 L 1.25 -5.40625 L 1.25 -6.875 C 1.6875 -7.0625 2.109375 -7.203125 2.515625 -7.296875 C 2.929688 -7.390625 3.332031 -7.4375 3.71875 -7.4375 C 4.726562 -7.4375 5.492188 -7.1875 6.015625 -6.6875 C 6.535156 -6.1875 6.796875 -5.460938 6.796875 -4.515625 Z M 6.796875 -4.515625 "/></g></g><g style="fill:#ffffff;fill-opacity:1;"><g transform="translate(504.691566, 61.53921)"><path style="stroke:none" d="M 6.65625 -7.25 L 6.65625 -5.4375 L 5.9375 -5.4375 C 5.914062 -5.789062 5.816406 -6.054688 5.640625 -6.234375 C 5.460938 -6.410156 5.203125 -6.5 4.859375 -6.5 C 4.242188 -6.5 3.769531 -6.285156 3.4375 -5.859375 C 3.113281 -5.441406 2.953125 -4.832031 2.953125 -4.03125 L 2.953125 -0.71875 L 4.40625 -0.71875 L 4.40625 0 L 0.578125 0 L 0.578125 -0.71875 L 1.703125 -0.71875 L 1.703125 -6.515625 L 0.5 -6.515625 L 0.5 -7.234375 L 2.953125 -7.234375 L 2.953125 -5.953125 C 3.203125 -6.453125 3.519531 -6.820312 3.90625 -7.0625 C 4.289062 -7.3125 4.757812 -7.4375 5.3125 -7.4375 C 5.507812 -7.4375 5.71875 -7.421875 5.9375 -7.390625 C 6.164062 -7.359375 6.40625 -7.3125 6.65625 -7.25 Z M 6.65625 -7.25 "/></g></g><g style="fill:#ffffff;fill-opacity:1;"><g transform="translate(511.350607, 61.53921)"><path style="stroke:none" d="M 7.546875 -3.484375 L 2.15625 -3.484375 L 2.15625 -3.4375 C 2.15625 -2.457031 2.335938 -1.71875 2.703125 -1.21875 C 3.078125 -0.71875 3.617188 -0.46875 4.328125 -0.46875 C 4.878906 -0.46875 5.332031 -0.613281 5.6875 -0.90625 C 6.039062 -1.195312 6.285156 -1.625 6.421875 -2.1875 L 7.4375 -2.1875 C 7.226562 -1.394531 6.851562 -0.796875 6.3125 -0.390625 C 5.78125 0.00390625 5.078125 0.203125 4.203125 0.203125 C 3.148438 0.203125 2.300781 -0.144531 1.65625 -0.84375 C 1.007812 -1.539062 0.6875 -2.46875 0.6875 -3.625 C 0.6875 -4.757812 1.003906 -5.675781 1.640625 -6.375 C 2.273438 -7.082031 3.101562 -7.4375 4.125 -7.4375 C 5.21875 -7.4375 6.054688 -7.097656 6.640625 -6.421875 C 7.222656 -5.742188 7.523438 -4.765625 7.546875 -3.484375 Z M 6.078125 -4.203125 C 6.046875 -5.046875 5.863281 -5.679688 5.53125 -6.109375 C 5.207031 -6.535156 4.738281 -6.75 4.125 -6.75 C 3.550781 -6.75 3.097656 -6.535156 2.765625 -6.109375 C 2.429688 -5.679688 2.226562 -5.046875 2.15625 -4.203125 Z M 6.078125 -4.203125 "/></g></g><g style="fill:#ffffff;fill-opacity:1;"><g transform="translate(519.594499, 61.53921)"><path style="stroke:none" d=""/></g></g><g style="fill:#ffffff;fill-opacity:1;"><g transform="translate(524.022519, 61.53921)"><path style="stroke:none" d="M 0.78125 -0.40625 L 0.78125 -2.09375 L 1.5 -2.09375 C 1.519531 -1.550781 1.6875 -1.144531 2 -0.875 C 2.320312 -0.601562 2.800781 -0.46875 3.4375 -0.46875 C 4 -0.46875 4.425781 -0.570312 4.71875 -0.78125 C 5.007812 -1 5.15625 -1.3125 5.15625 -1.71875 C 5.15625 -2.03125 5.046875 -2.285156 4.828125 -2.484375 C 4.617188 -2.679688 4.164062 -2.890625 3.46875 -3.109375 L 2.5625 -3.421875 C 1.945312 -3.617188 1.5 -3.863281 1.21875 -4.15625 C 0.9375 -4.457031 0.796875 -4.84375 0.796875 -5.3125 C 0.796875 -5.96875 1.035156 -6.484375 1.515625 -6.859375 C 2.003906 -7.242188 2.675781 -7.4375 3.53125 -7.4375 C 3.914062 -7.4375 4.316406 -7.382812 4.734375 -7.28125 C 5.160156 -7.175781 5.597656 -7.03125 6.046875 -6.84375 L 6.046875 -5.265625 L 5.328125 -5.265625 C 5.304688 -5.734375 5.140625 -6.097656 4.828125 -6.359375 C 4.523438 -6.617188 4.109375 -6.75 3.578125 -6.75 C 3.054688 -6.75 2.660156 -6.65625 2.390625 -6.46875 C 2.117188 -6.289062 1.984375 -6.015625 1.984375 -5.640625 C 1.984375 -5.335938 2.082031 -5.09375 2.28125 -4.90625 C 2.488281 -4.726562 2.898438 -4.539062 3.515625 -4.34375 L 4.5 -4.046875 C 5.1875 -3.828125 5.679688 -3.554688 5.984375 -3.234375 C 6.285156 -2.921875 6.4375 -2.507812 6.4375 -2 C 6.4375 -1.320312 6.171875 -0.785156 5.640625 -0.390625 C 5.117188 0.00390625 4.398438 0.203125 3.484375 0.203125 C 3.015625 0.203125 2.554688 0.148438 2.109375 0.046875 C 1.671875 -0.0546875 1.226562 -0.207031 0.78125 -0.40625 Z M 0.78125 -0.40625 "/></g></g><g style="fill:#ffffff;fill-opacity:1;"><g transform="translate(531.171319, 61.53921)"><path style="stroke:none" d="M 1.5 -6.5 L 0.40625 -6.5 L 0.40625 -7.234375 L 1.5 -7.234375 L 1.5 -9.484375 L 2.765625 -9.484375 L 2.765625 -7.234375 L 5.125 -7.234375 L 5.125 -6.5 L 2.765625 -6.5 L 2.765625 -1.90625 C 2.765625 -1.300781 2.820312 -0.910156 2.9375 -0.734375 C 3.050781 -0.554688 3.269531 -0.46875 3.59375 -0.46875 C 3.914062 -0.46875 4.148438 -0.566406 4.296875 -0.765625 C 4.453125 -0.960938 4.535156 -1.273438 4.546875 -1.703125 L 5.484375 -1.703125 C 5.453125 -1.046875 5.273438 -0.5625 4.953125 -0.25 C 4.628906 0.0507812 4.140625 0.203125 3.484375 0.203125 C 2.765625 0.203125 2.253906 0.0390625 1.953125 -0.28125 C 1.648438 -0.601562 1.5 -1.144531 1.5 -1.90625 Z M 1.5 -6.5 "/></g></g><g style="fill:#ffffff;fill-opacity:1;"><g transform="translate(536.769287, 61.53921)"><path style="stroke:none" d="M 1.359375 -9.484375 C 1.359375 -9.691406 1.429688 -9.867188 1.578125 -10.015625 C 1.734375 -10.171875 1.914062 -10.25 2.125 -10.25 C 2.332031 -10.25 2.515625 -10.171875 2.671875 -10.015625 C 2.828125 -9.867188 2.90625 -9.691406 2.90625 -9.484375 C 2.90625 -9.265625 2.828125 -9.082031 2.671875 -8.9375 C 2.523438 -8.789062 2.34375 -8.71875 2.125 -8.71875 C 1.914062 -8.71875 1.734375 -8.789062 1.578125 -8.9375 C 1.429688 -9.082031 1.359375 -9.265625 1.359375 -9.484375 Z M 2.953125 -0.71875 L 4.140625 -0.71875 L 4.140625 0 L 0.5 0 L 0.5 -0.71875 L 1.703125 -0.71875 L 1.703125 -6.5 L 0.5 -6.5 L 0.5 -7.234375 L 2.953125 -7.234375 Z M 2.953125 -0.71875 "/></g></g><g style="fill:#ffffff;fill-opacity:1;"><g transform="translate(541.224515, 61.53921)"><path style="stroke:none" d="M 2.859375 -0.71875 L 4.046875 -0.71875 L 4.046875 0 L 0.40625 0 L 0.40625 -0.71875 L 1.609375 -0.71875 L 1.609375 -9.875 L 0.40625 -9.875 L 0.40625 -10.59375 L 2.859375 -10.59375 Z M 2.859375 -0.71875 "/></g></g><g style="fill:#ffffff;fill-opacity:1;"><g transform="translate(545.679742, 61.53921)"><path style="stroke:none" d="M 2.859375 -0.71875 L 4.046875 -0.71875 L 4.046875 0 L 0.40625 0 L 0.40625 -0.71875 L 1.609375 -0.71875 L 1.609375 -9.875 L 0.40625 -9.875 L 0.40625 -10.59375 L 2.859375 -10.59375 Z M 2.859375 -0.71875 "/></g></g><g style="fill:#ffffff;fill-opacity:1;"><g transform="translate(550.134993, 61.53921)"><path style="stroke:none" d=""/></g></g><g style="fill:#ffffff;fill-opacity:1;"><g transform="translate(554.563036, 61.53921)"><path style="stroke:none" d="M 6 -8.875 L 5.328125 -8.875 C 5.328125 -9.21875 5.234375 -9.476562 5.046875 -9.65625 C 4.859375 -9.832031 4.582031 -9.921875 4.21875 -9.921875 C 3.757812 -9.921875 3.429688 -9.789062 3.234375 -9.53125 C 3.046875 -9.28125 2.953125 -8.828125 2.953125 -8.171875 L 2.953125 -7.234375 L 4.96875 -7.234375 L 4.96875 -6.5 L 2.953125 -6.5 L 2.953125 -0.71875 L 4.5625 -0.71875 L 4.5625 0 L 0.5 0 L 0.5 -0.71875 L 1.703125 -0.71875 L 1.703125 -6.5 L 0.5 -6.5 L 0.5 -7.234375 L 1.703125 -7.234375 L 1.703125 -8.140625 C 1.703125 -8.941406 1.910156 -9.550781 2.328125 -9.96875 C 2.742188 -10.382812 3.359375 -10.59375 4.171875 -10.59375 C 4.484375 -10.59375 4.789062 -10.5625 5.09375 -10.5 C 5.394531 -10.445312 5.695312 -10.363281 6 -10.25 Z M 6 -8.875 "/></g></g><g style="fill:#ffffff;fill-opacity:1;"><g transform="translate(559.718847, 61.53921)"><path style="stroke:none" d="M 5.546875 -2.265625 L 5.546875 -3.796875 L 3.9375 -3.796875 C 3.3125 -3.796875 2.847656 -3.660156 2.546875 -3.390625 C 2.242188 -3.128906 2.09375 -2.722656 2.09375 -2.171875 C 2.09375 -1.671875 2.242188 -1.269531 2.546875 -0.96875 C 2.859375 -0.675781 3.273438 -0.53125 3.796875 -0.53125 C 4.328125 -0.53125 4.75 -0.691406 5.0625 -1.015625 C 5.382812 -1.335938 5.546875 -1.753906 5.546875 -2.265625 Z M 6.796875 -4.515625 L 6.796875 -0.71875 L 7.921875 -0.71875 L 7.921875 0 L 5.546875 0 L 5.546875 -0.78125 C 5.265625 -0.445312 4.941406 -0.195312 4.578125 -0.03125 C 4.222656 0.125 3.800781 0.203125 3.3125 0.203125 C 2.507812 0.203125 1.867188 -0.0078125 1.390625 -0.4375 C 0.921875 -0.863281 0.6875 -1.441406 0.6875 -2.171875 C 0.6875 -2.921875 0.957031 -3.5 1.5 -3.90625 C 2.039062 -4.320312 2.804688 -4.53125 3.796875 -4.53125 L 5.546875 -4.53125 L 5.546875 -5.03125 C 5.546875 -5.582031 5.378906 -6.003906 5.046875 -6.296875 C 4.710938 -6.597656 4.242188 -6.75 3.640625 -6.75 C 3.140625 -6.75 2.738281 -6.632812 2.4375 -6.40625 C 2.144531 -6.1875 1.96875 -5.851562 1.90625 -5.40625 L 1.25 -5.40625 L 1.25 -6.875 C 1.6875 -7.0625 2.109375 -7.203125 2.515625 -7.296875 C 2.929688 -7.390625 3.332031 -7.4375 3.71875 -7.4375 C 4.726562 -7.4375 5.492188 -7.1875 6.015625 -6.6875 C 6.535156 -6.1875 6.796875 -5.460938 6.796875 -4.515625 Z M 6.796875 -4.515625 "/></g></g><g style="fill:#ffffff;fill-opacity:1;"><g transform="translate(568.023968, 61.53921)"><path style="stroke:none" d="M 6.65625 -7.25 L 6.65625 -5.4375 L 5.9375 -5.4375 C 5.914062 -5.789062 5.816406 -6.054688 5.640625 -6.234375 C 5.460938 -6.410156 5.203125 -6.5 4.859375 -6.5 C 4.242188 -6.5 3.769531 -6.285156 3.4375 -5.859375 C 3.113281 -5.441406 2.953125 -4.832031 2.953125 -4.03125 L 2.953125 -0.71875 L 4.40625 -0.71875 L 4.40625 0 L 0.578125 0 L 0.578125 -0.71875 L 1.703125 -0.71875 L 1.703125 -6.515625 L 0.5 -6.515625 L 0.5 -7.234375 L 2.953125 -7.234375 L 2.953125 -5.953125 C 3.203125 -6.453125 3.519531 -6.820312 3.90625 -7.0625 C 4.289062 -7.3125 4.757812 -7.4375 5.3125 -7.4375 C 5.507812 -7.4375 5.71875 -7.421875 5.9375 -7.390625 C 6.164062 -7.359375 6.40625 -7.3125 6.65625 -7.25 Z M 6.65625 -7.25 "/></g></g><g style="fill:#ffffff;fill-opacity:1;"><g transform="translate(574.683009, 61.53921)"><path style="stroke:none" d=""/></g></g><g style="fill:#ffffff;fill-opacity:1;"><g transform="translate(579.111052, 61.53921)"><path style="stroke:none" d="M 5.546875 -2.265625 L 5.546875 -3.796875 L 3.9375 -3.796875 C 3.3125 -3.796875 2.847656 -3.660156 2.546875 -3.390625 C 2.242188 -3.128906 2.09375 -2.722656 2.09375 -2.171875 C 2.09375 -1.671875 2.242188 -1.269531 2.546875 -0.96875 C 2.859375 -0.675781 3.273438 -0.53125 3.796875 -0.53125 C 4.328125 -0.53125 4.75 -0.691406 5.0625 -1.015625 C 5.382812 -1.335938 5.546875 -1.753906 5.546875 -2.265625 Z M 6.796875 -4.515625 L 6.796875 -0.71875 L 7.921875 -0.71875 L 7.921875 0 L 5.546875 0 L 5.546875 -0.78125 C 5.265625 -0.445312 4.941406 -0.195312 4.578125 -0.03125 C 4.222656 0.125 3.800781 0.203125 3.3125 0.203125 C 2.507812 0.203125 1.867188 -0.0078125 1.390625 -0.4375 C 0.921875 -0.863281 0.6875 -1.441406 0.6875 -2.171875 C 0.6875 -2.921875 0.957031 -3.5 1.5 -3.90625 C 2.039062 -4.320312 2.804688 -4.53125 3.796875 -4.53125 L 5.546875 -4.53125 L 5.546875 -5.03125 C 5.546875 -5.582031 5.378906 -6.003906 5.046875 -6.296875 C 4.710938 -6.597656 4.242188 -6.75 3.640625 -6.75 C 3.140625 -6.75 2.738281 -6.632812 2.4375 -6.40625 C 2.144531 -6.1875 1.96875 -5.851562 1.90625 -5.40625 L 1.25 -5.40625 L 1.25 -6.875 C 1.6875 -7.0625 2.109375 -7.203125 2.515625 -7.296875 C 2.929688 -7.390625 3.332031 -7.4375 3.71875 -7.4375 C 4.726562 -7.4375 5.492188 -7.1875 6.015625 -6.6875 C 6.535156 -6.1875 6.796875 -5.460938 6.796875 -4.515625 Z M 6.796875 -4.515625 "/></g></g><g style="fill:#ffffff;fill-opacity:1;"><g transform="translate(587.41615, 61.53921)"><path style="stroke:none" d="M 0.578125 0 L 0.578125 -0.71875 L 1.703125 -0.71875 L 1.703125 -9.875 L 0.5 -9.875 L 0.5 -10.59375 L 2.953125 -10.59375 L 2.953125 -5.953125 C 3.179688 -6.441406 3.476562 -6.8125 3.84375 -7.0625 C 4.21875 -7.3125 4.648438 -7.4375 5.140625 -7.4375 C 5.941406 -7.4375 6.53125 -7.207031 6.90625 -6.75 C 7.28125 -6.289062 7.46875 -5.570312 7.46875 -4.59375 L 7.46875 -0.71875 L 8.59375 -0.71875 L 8.59375 0 L 5.125 0 L 5.125 -0.71875 L 6.21875 -0.71875 L 6.21875 -4.203125 C 6.21875 -5.085938 6.109375 -5.691406 5.890625 -6.015625 C 5.671875 -6.335938 5.285156 -6.5 4.734375 -6.5 C 4.148438 -6.5 3.707031 -6.285156 3.40625 -5.859375 C 3.101562 -5.441406 2.953125 -4.832031 2.953125 -4.03125 L 2.953125 -0.71875 L 4.046875 -0.71875 L 4.046875 0 Z M 0.578125 0 "/></g></g><g style="fill:#ffffff;fill-opacity:1;"><g transform="translate(596.387857, 61.53921)"><path style="stroke:none" d="M 7.546875 -3.484375 L 2.15625 -3.484375 L 2.15625 -3.4375 C 2.15625 -2.457031 2.335938 -1.71875 2.703125 -1.21875 C 3.078125 -0.71875 3.617188 -0.46875 4.328125 -0.46875 C 4.878906 -0.46875 5.332031 -0.613281 5.6875 -0.90625 C 6.039062 -1.195312 6.285156 -1.625 6.421875 -2.1875 L 7.4375 -2.1875 C 7.226562 -1.394531 6.851562 -0.796875 6.3125 -0.390625 C 5.78125 0.00390625 5.078125 0.203125 4.203125 0.203125 C 3.148438 0.203125 2.300781 -0.144531 1.65625 -0.84375 C 1.007812 -1.539062 0.6875 -2.46875 0.6875 -3.625 C 0.6875 -4.757812 1.003906 -5.675781 1.640625 -6.375 C 2.273438 -7.082031 3.101562 -7.4375 4.125 -7.4375 C 5.21875 -7.4375 6.054688 -7.097656 6.640625 -6.421875 C 7.222656 -5.742188 7.523438 -4.765625 7.546875 -3.484375 Z M 6.078125 -4.203125 C 6.046875 -5.046875 5.863281 -5.679688 5.53125 -6.109375 C 5.207031 -6.535156 4.738281 -6.75 4.125 -6.75 C 3.550781 -6.75 3.097656 -6.535156 2.765625 -6.109375 C 2.429688 -5.679688 2.226562 -5.046875 2.15625 -4.203125 Z M 6.078125 -4.203125 "/></g></g><g style="fill:#ffffff;fill-opacity:1;"><g transform="translate(604.631749, 61.53921)"><path style="stroke:none" d="M 5.546875 -2.265625 L 5.546875 -3.796875 L 3.9375 -3.796875 C 3.3125 -3.796875 2.847656 -3.660156 2.546875 -3.390625 C 2.242188 -3.128906 2.09375 -2.722656 2.09375 -2.171875 C 2.09375 -1.671875 2.242188 -1.269531 2.546875 -0.96875 C 2.859375 -0.675781 3.273438 -0.53125 3.796875 -0.53125 C 4.328125 -0.53125 4.75 -0.691406 5.0625 -1.015625 C 5.382812 -1.335938 5.546875 -1.753906 5.546875 -2.265625 Z M 6.796875 -4.515625 L 6.796875 -0.71875 L 7.921875 -0.71875 L 7.921875 0 L 5.546875 0 L 5.546875 -0.78125 C 5.265625 -0.445312 4.941406 -0.195312 4.578125 -0.03125 C 4.222656 0.125 3.800781 0.203125 3.3125 0.203125 C 2.507812 0.203125 1.867188 -0.0078125 1.390625 -0.4375 C 0.921875 -0.863281 0.6875 -1.441406 0.6875 -2.171875 C 0.6875 -2.921875 0.957031 -3.5 1.5 -3.90625 C 2.039062 -4.320312 2.804688 -4.53125 3.796875 -4.53125 L 5.546875 -4.53125 L 5.546875 -5.03125 C 5.546875 -5.582031 5.378906 -6.003906 5.046875 -6.296875 C 4.710938 -6.597656 4.242188 -6.75 3.640625 -6.75 C 3.140625 -6.75 2.738281 -6.632812 2.4375 -6.40625 C 2.144531 -6.1875 1.96875 -5.851562 1.90625 -5.40625 L 1.25 -5.40625 L 1.25 -6.875 C 1.6875 -7.0625 2.109375 -7.203125 2.515625 -7.296875 C 2.929688 -7.390625 3.332031 -7.4375 3.71875 -7.4375 C 4.726562 -7.4375 5.492188 -7.1875 6.015625 -6.6875 C 6.535156 -6.1875 6.796875 -5.460938 6.796875 -4.515625 Z M 6.796875 -4.515625 "/></g></g><g style="fill:#ffffff;fill-opacity:1;"><g transform="translate(612.936848, 61.53921)"><path style="stroke:none" d="M 7.3125 -0.71875 L 8.515625 -0.71875 L 8.515625 0 L 6.0625 0 L 6.0625 -1.125 C 5.820312 -0.675781 5.507812 -0.34375 5.125 -0.125 C 4.75 0.09375 4.28125 0.203125 3.71875 0.203125 C 2.832031 0.203125 2.101562 -0.148438 1.53125 -0.859375 C 0.96875 -1.566406 0.6875 -2.488281 0.6875 -3.625 C 0.6875 -4.757812 0.96875 -5.675781 1.53125 -6.375 C 2.09375 -7.082031 2.820312 -7.4375 3.71875 -7.4375 C 4.28125 -7.4375 4.75 -7.328125 5.125 -7.109375 C 5.507812 -6.890625 5.820312 -6.554688 6.0625 -6.109375 L 6.0625 -9.875 L 4.875 -9.875 L 4.875 -10.59375 L 7.3125 -10.59375 Z M 6.0625 -3.265625 L 6.0625 -3.96875 C 6.0625 -4.84375 5.894531 -5.507812 5.5625 -5.96875 C 5.226562 -6.425781 4.742188 -6.65625 4.109375 -6.65625 C 3.460938 -6.65625 2.972656 -6.398438 2.640625 -5.890625 C 2.316406 -5.378906 2.15625 -4.625 2.15625 -3.625 C 2.15625 -2.625 2.316406 -1.863281 2.640625 -1.34375 C 2.972656 -0.832031 3.460938 -0.578125 4.109375 -0.578125 C 4.742188 -0.578125 5.226562 -0.804688 5.5625 -1.265625 C 5.894531 -1.722656 6.0625 -2.390625 6.0625 -3.265625 Z M 6.0625 -3.265625 "/></g></g><g style="fill:#ffffff;fill-opacity:1;"><g transform="translate(621.854139, 61.53921)"><path style="stroke:none" d="M 0.984375 -7.265625 C 1.335938 -7.546875 1.59375 -7.878906 1.75 -8.265625 C 1.914062 -8.660156 2 -9.15625 2 -9.75 L 2 -10.15625 L 3.3125 -10.15625 C 3.3125 -9.375 3.164062 -8.707031 2.875 -8.15625 C 2.59375 -7.613281 2.140625 -7.132812 1.515625 -6.71875 Z M 3.703125 -7.265625 C 4.046875 -7.546875 4.296875 -7.878906 4.453125 -8.265625 C 4.609375 -8.660156 4.6875 -9.148438 4.6875 -9.734375 L 4.6875 -10.15625 L 6 -10.15625 C 6 -9.363281 5.851562 -8.695312 5.5625 -8.15625 C 5.28125 -7.613281 4.832031 -7.132812 4.21875 -6.71875 Z M 3.703125 -7.265625 "/></g></g><g style="fill:#ffffff;fill-opacity:1;"><g transform="translate(401.010685, 80.952926)"><path style="stroke:none" d="M 0.609375 -4.265625 L 4.09375 -4.265625 L 4.09375 -3.203125 L 0.609375 -3.203125 Z M 0.609375 -4.265625 "/></g></g><g style="fill:#ffffff;fill-opacity:1;"><g transform="translate(405.717594, 80.952926)"><path style="stroke:none" d="M 0.609375 -4.265625 L 4.09375 -4.265625 L 4.09375 -3.203125 L 0.609375 -3.203125 Z M 0.609375 -4.265625 "/></g></g><g style="fill:#ffffff;fill-opacity:1;"><g transform="translate(410.424503, 80.952926)"><path style="stroke:none" d=""/></g></g><g style="fill:#ffffff;fill-opacity:1;"><g transform="translate(414.852534, 80.952926)"><path style="stroke:none" d="M 4.609375 -4.34375 L 2.125 -0.71875 L 3.4375 -0.71875 L 3.4375 0 L 0.078125 0 L 0.078125 -0.71875 L 1.25 -0.71875 L 4.171875 -4.984375 L 1.21875 -9.4375 L 0.125 -9.4375 L 0.125 -10.15625 L 4.15625 -10.15625 L 4.15625 -9.4375 L 2.953125 -9.4375 L 5.125 -6.15625 L 7.375 -9.4375 L 6.0625 -9.4375 L 6.0625 -10.15625 L 9.390625 -10.15625 L 9.390625 -9.4375 L 8.25 -9.4375 L 5.5625 -5.515625 L 8.765625 -0.71875 L 9.859375 -0.71875 L 9.859375 0 L 5.828125 0 L 5.828125 -0.71875 L 7.03125 -0.71875 Z M 4.609375 -4.34375 "/></g></g><g style="fill:#ffffff;fill-opacity:1;"><g transform="translate(424.769693, 80.952926)"><path style="stroke:none" d="M 4.1875 -0.46875 C 4.863281 -0.46875 5.375 -0.734375 5.71875 -1.265625 C 6.0625 -1.796875 6.234375 -2.582031 6.234375 -3.625 C 6.234375 -4.65625 6.0625 -5.429688 5.71875 -5.953125 C 5.375 -6.484375 4.863281 -6.75 4.1875 -6.75 C 3.519531 -6.75 3.015625 -6.484375 2.671875 -5.953125 C 2.328125 -5.429688 2.15625 -4.65625 2.15625 -3.625 C 2.15625 -2.582031 2.328125 -1.796875 2.671875 -1.265625 C 3.015625 -0.734375 3.519531 -0.46875 4.1875 -0.46875 Z M 4.1875 0.203125 C 3.132812 0.203125 2.285156 -0.144531 1.640625 -0.84375 C 1.003906 -1.539062 0.6875 -2.46875 0.6875 -3.625 C 0.6875 -4.769531 1.003906 -5.691406 1.640625 -6.390625 C 2.285156 -7.085938 3.132812 -7.4375 4.1875 -7.4375 C 5.25 -7.4375 6.097656 -7.085938 6.734375 -6.390625 C 7.367188 -5.691406 7.6875 -4.769531 7.6875 -3.625 C 7.6875 -2.46875 7.367188 -1.539062 6.734375 -0.84375 C 6.097656 -0.144531 5.25 0.203125 4.1875 0.203125 Z M 4.1875 0.203125 "/></g></g><g style="fill:#ffffff;fill-opacity:1;"><g transform="translate(433.156425, 80.952926)"><path style="stroke:none" d="M 5.546875 -2.265625 L 5.546875 -3.796875 L 3.9375 -3.796875 C 3.3125 -3.796875 2.847656 -3.660156 2.546875 -3.390625 C 2.242188 -3.128906 2.09375 -2.722656 2.09375 -2.171875 C 2.09375 -1.671875 2.242188 -1.269531 2.546875 -0.96875 C 2.859375 -0.675781 3.273438 -0.53125 3.796875 -0.53125 C 4.328125 -0.53125 4.75 -0.691406 5.0625 -1.015625 C 5.382812 -1.335938 5.546875 -1.753906 5.546875 -2.265625 Z M 6.796875 -4.515625 L 6.796875 -0.71875 L 7.921875 -0.71875 L 7.921875 0 L 5.546875 0 L 5.546875 -0.78125 C 5.265625 -0.445312 4.941406 -0.195312 4.578125 -0.03125 C 4.222656 0.125 3.800781 0.203125 3.3125 0.203125 C 2.507812 0.203125 1.867188 -0.0078125 1.390625 -0.4375 C 0.921875 -0.863281 0.6875 -1.441406 0.6875 -2.171875 C 0.6875 -2.921875 0.957031 -3.5 1.5 -3.90625 C 2.039062 -4.320312 2.804688 -4.53125 3.796875 -4.53125 L 5.546875 -4.53125 L 5.546875 -5.03125 C 5.546875 -5.582031 5.378906 -6.003906 5.046875 -6.296875 C 4.710938 -6.597656 4.242188 -6.75 3.640625 -6.75 C 3.140625 -6.75 2.738281 -6.632812 2.4375 -6.40625 C 2.144531 -6.1875 1.96875 -5.851562 1.90625 -5.40625 L 1.25 -5.40625 L 1.25 -6.875 C 1.6875 -7.0625 2.109375 -7.203125 2.515625 -7.296875 C 2.929688 -7.390625 3.332031 -7.4375 3.71875 -7.4375 C 4.726562 -7.4375 5.492188 -7.1875 6.015625 -6.6875 C 6.535156 -6.1875 6.796875 -5.460938 6.796875 -4.515625 Z M 6.796875 -4.515625 "/></g></g><g style="fill:#ffffff;fill-opacity:1;"><g transform="translate(441.461535, 80.952926)"><path style="stroke:none" d="M 0.578125 0 L 0.578125 -0.71875 L 1.703125 -0.71875 L 1.703125 -6.5 L 0.5 -6.5 L 0.5 -7.234375 L 2.953125 -7.234375 L 2.953125 -5.953125 C 3.179688 -6.441406 3.476562 -6.8125 3.84375 -7.0625 C 4.21875 -7.3125 4.648438 -7.4375 5.140625 -7.4375 C 5.941406 -7.4375 6.53125 -7.207031 6.90625 -6.75 C 7.28125 -6.289062 7.46875 -5.570312 7.46875 -4.59375 L 7.46875 -0.71875 L 8.59375 -0.71875 L 8.59375 0 L 5.125 0 L 5.125 -0.71875 L 6.21875 -0.71875 L 6.21875 -4.203125 C 6.21875 -5.085938 6.109375 -5.691406 5.890625 -6.015625 C 5.671875 -6.347656 5.285156 -6.515625 4.734375 -6.515625 C 4.148438 -6.515625 3.707031 -6.300781 3.40625 -5.875 C 3.101562 -5.457031 2.953125 -4.84375 2.953125 -4.03125 L 2.953125 -0.71875 L 4.046875 -0.71875 L 4.046875 0 Z M 0.578125 0 "/></g></g><g style="fill:#ffffff;fill-opacity:1;"><g transform="translate(450.43323, 80.952926)"><path style="stroke:none" d=""/></g></g><g style="fill:#ffffff;fill-opacity:1;"><g transform="translate(454.861261, 80.952926)"><path style="stroke:none" d="M 3.4375 -0.71875 L 4.703125 -0.71875 C 6.023438 -0.71875 7.039062 -1.09375 7.75 -1.84375 C 8.457031 -2.601562 8.8125 -3.6875 8.8125 -5.09375 C 8.8125 -6.5 8.457031 -7.570312 7.75 -8.3125 C 7.050781 -9.0625 6.035156 -9.4375 4.703125 -9.4375 L 3.4375 -9.4375 Z M 0.765625 0 L 0.765625 -0.71875 L 2.0625 -0.71875 L 2.0625 -9.4375 L 0.765625 -9.4375 L 0.765625 -10.15625 L 4.8125 -10.15625 C 6.5625 -10.15625 7.925781 -9.707031 8.90625 -8.8125 C 9.882812 -7.925781 10.375 -6.6875 10.375 -5.09375 C 10.375 -3.488281 9.882812 -2.238281 8.90625 -1.34375 C 7.925781 -0.445312 6.5625 0 4.8125 0 Z M 0.765625 0 "/></g></g><g style="fill:#ffffff;fill-opacity:1;"><g transform="translate(466.029967, 80.952926)"><path style="stroke:none" d="M 7.546875 -3.484375 L 2.15625 -3.484375 L 2.15625 -3.4375 C 2.15625 -2.457031 2.335938 -1.71875 2.703125 -1.21875 C 3.078125 -0.71875 3.617188 -0.46875 4.328125 -0.46875 C 4.878906 -0.46875 5.332031 -0.613281 5.6875 -0.90625 C 6.039062 -1.195312 6.285156 -1.625 6.421875 -2.1875 L 7.4375 -2.1875 C 7.226562 -1.394531 6.851562 -0.796875 6.3125 -0.390625 C 5.78125 0.00390625 5.078125 0.203125 4.203125 0.203125 C 3.148438 0.203125 2.300781 -0.144531 1.65625 -0.84375 C 1.007812 -1.539062 0.6875 -2.46875 0.6875 -3.625 C 0.6875 -4.757812 1.003906 -5.675781 1.640625 -6.375 C 2.273438 -7.082031 3.101562 -7.4375 4.125 -7.4375 C 5.21875 -7.4375 6.054688 -7.097656 6.640625 -6.421875 C 7.222656 -5.742188 7.523438 -4.765625 7.546875 -3.484375 Z M 6.078125 -4.203125 C 6.046875 -5.046875 5.863281 -5.679688 5.53125 -6.109375 C 5.207031 -6.535156 4.738281 -6.75 4.125 -6.75 C 3.550781 -6.75 3.097656 -6.535156 2.765625 -6.109375 C 2.429688 -5.679688 2.226562 -5.046875 2.15625 -4.203125 Z M 6.078125 -4.203125 "/></g></g><g style="fill:#ffffff;fill-opacity:1;"><g transform="translate(474.27386, 80.952926)"><path style="stroke:none" d="M 3.4375 0 L 0.78125 -6.5 L -0.046875 -6.5 L -0.046875 -7.234375 L 3.28125 -7.234375 L 3.28125 -6.5 L 2.125 -6.5 L 4.171875 -1.53125 L 6.203125 -6.5 L 5.125 -6.5 L 5.125 -7.234375 L 7.828125 -7.234375 L 7.828125 -6.5 L 7.015625 -6.5 L 4.359375 0 Z M 3.4375 0 "/></g></g><g style="fill:#ffffff;fill-opacity:1;"><g transform="translate(482.143649, 80.952926)"><path style="stroke:none" d=""/></g></g><g style="fill:#ffffff;fill-opacity:1;"><g transform="translate(486.57168, 80.952926)"><path style="stroke:none" d="M 0.609375 -4.265625 L 4.09375 -4.265625 L 4.09375 -3.203125 L 0.609375 -3.203125 Z M 0.609375 -4.265625 "/></g></g><g style="fill:#ffffff;fill-opacity:1;"><g transform="translate(491.278589, 80.952926)"><path style="stroke:none" d="M 0.609375 -4.265625 L 4.09375 -4.265625 L 4.09375 -3.203125 L 0.609375 -3.203125 Z M 0.609375 -4.265625 "/></g></g></g></svg>